<svg xmlns="http://www.w3.org/2000/svg" viewBox="0 0 152.52 208.88"><defs><style>.cls-1{fill:#244736;}.cls-2{fill:#2f0a37;}.cls-3{fill:#491456;}.cls-4{fill:#2d5640;}.cls-5{fill:#ffaf00;}.cls-6{fill:#437557;}.cls-7{fill:#37664b;}</style></defs><g id="Layer_2" data-name="Layer 2"><g id="OBJECTS"><rect class="cls-1" width="152.52" height="208.88"/><path class="cls-2" d="M129.74,22.47c9.86,3.78,19.73,14.16,19.73,14.16V0H4.5V20.93S6,12.83,18.81,14c5.18.47,10.8-1.48,13.19-1.48S25.41,17.14,19.61,18,7.75,28.08,5.29,32.28,4.5,51.73,4.5,51.73,12.82,35.65,18,30.81,37.2,17.56,47.19,16.3s-5,2.52-11.39,7.57S17.81,39,15,45.74s-10.83,24-10.83,24v34.21s1.1-37.15,17.09-49.77S32.2,42.65,43.66,34.24s17.06-11.49,29.58-9.81,8.53-2.29,21.59-.44,20,7.73,27.44,13.62,17.59,31.68,18.93,40.93,8.52,17.67,8.26,25.52,0,23.55,0,36.72v-74s-6.41-21-13.07-31.12-16.52-11.78-21.59-14.87S119.88,18.68,129.74,22.47Z"/><path class="cls-3" d="M132.41,21.08c-12.63-4.52-17.3-2.81-18.55-2,1.67-.62,8.83.64,15.88,3.35s13.88,8.59,17.38,11.86l1.34-1.39S147.23,26.39,132.41,21.08Z"/><path class="cls-3" d="M34.1,17.87c-8.94,3.89-17.24,7.57-22.6,17.67-1.87,3.5-2,5.36-1.45,6.3,2.58-4.29,5.6-8.83,8-11C23.21,26,37.2,17.56,47.19,16.3a14.13,14.13,0,0,1,3.13-.21A26.28,26.28,0,0,0,34.1,17.87Z"/><path class="cls-3" d="M149.47,140.78v-4.06c0-8.07-.11-17.08-.13-24.66C149.32,120.32,149.47,131.21,149.47,140.78Z"/><path class="cls-3" d="M149.46,100c.26-7.85-6.93-16.26-8.26-25.51s-11.46-35.05-18.93-40.94S107.89,21.77,94.83,19.92s-9.06,2.13-21.59.44-18.12,1.41-29.58,9.82-6.39,7.29-22.38,19.91S4.19,99.85,4.19,99.85v4.07s1.1-37.15,17.09-49.77S32.2,42.65,43.66,34.24s17.06-11.49,29.58-9.81,8.53-2.29,21.59-.44,20,7.73,27.44,13.62,17.59,31.68,18.93,40.93c1.23,8.6,7.53,16.47,8.2,23.84C149.41,101.53,149.43,100.72,149.46,100Z"/><path class="cls-4" d="M145.11,79.16a8.62,8.62,0,0,0-8.37,6.57,4.29,4.29,0,0,0-6,3.38,3.93,3.93,0,0,0-1.09-.15,4.29,4.29,0,0,0-4.29,4.29s0,0,0,0a3.29,3.29,0,0,0-.54,0,3,3,0,0,0-2.92,2.15,4.23,4.23,0,0,0-4.86-.34,4.28,4.28,0,0,0-4.23-3.65,4.23,4.23,0,0,0-2.38.72,2.84,2.84,0,0,0,.09-.72,3.05,3.05,0,0,0-4.71-2.56l0,0a8.63,8.63,0,0,0-15.71,3.84,4.84,4.84,0,0,0-3.32-1.33,4.76,4.76,0,0,0-3,1,5.56,5.56,0,0,0-4.44-2.23,5.64,5.64,0,0,0-1.55.22,5.55,5.55,0,0,0-5.54-5.26,5.49,5.49,0,0,0-3.88,1.59,2.6,2.6,0,0,0-2.6-2.45,2.74,2.74,0,0,0-.76.11s0-.07,0-.11A8.63,8.63,0,0,0,48,82.68,2.59,2.59,0,0,0,44.28,85a1.64,1.64,0,0,0,0,.22,3.22,3.22,0,0,0-3.95-.61,6.88,6.88,0,0,0-13.28-.82,3.16,3.16,0,0,0-2.35-1,3.2,3.2,0,0,0-2.85,1.74,4.1,4.1,0,0,0-6.3,3.12,2.3,2.3,0,0,0-1.36-.46,2.23,2.23,0,0,0-1.65.73,2.87,2.87,0,0,0-4.15-1.53A3.45,3.45,0,0,0,3.07,83.7a3.21,3.21,0,0,0-3-2.13V136H152.52V83.37a8.62,8.62,0,0,0-7.41-4.21"/><path class="cls-5" d="M89.27,93.63A31.31,31.31,0,1,1,58,62.31,31.3,31.3,0,0,1,89.27,93.63Z"/><polygon class="cls-6" points="19.1 102.05 9.64 102.05 16.46 100.06 18.38 98.36 19.81 97.74 22.86 99.41 26.88 98.93 30.82 96.41 31.55 94.58 35.08 92.72 37.3 90.37 43.26 91.94 44.42 93.61 45.96 97.47 47.92 96.74 48.57 98.6 50 99.17 51.19 98.52 52.48 97.04 53.78 96.63 55.02 95.9 56.83 96.41 59.34 99.92 63.33 100.07 65.53 100.8 71.39 102.05 19.1 102.05"/><path class="cls-7" d="M7.46,111.86a8.62,8.62,0,0,1,8.37,6.58,4.15,4.15,0,0,1,1.72-.37,4.3,4.3,0,0,1,4.25,3.74A4.25,4.25,0,0,1,27.17,126v0a3.29,3.29,0,0,1,.54,0,3.07,3.07,0,0,1,2.92,2.15,4.26,4.26,0,0,1,4.85-.34,4.29,4.29,0,0,1,6.62-2.93,2.84,2.84,0,0,1-.09-.72,3,3,0,0,1,3.05-3,3,3,0,0,1,1.66.5l0,0a8.63,8.63,0,0,1,15.71,3.84,4.84,4.84,0,0,1,6.28-.31,5.56,5.56,0,0,1,4.44-2.23,5.28,5.28,0,0,1,1.55.23,5.54,5.54,0,0,1,9.42-3.68,2.6,2.6,0,0,1,2.59-2.45,2.48,2.48,0,0,1,.77.12.49.49,0,0,1,0-.12,8.63,8.63,0,0,1,17.12-1.55,2.6,2.6,0,0,1,3.67,2.37,1.48,1.48,0,0,1,0,.21,3.19,3.19,0,0,1,4-.6,6.88,6.88,0,0,1,13.28-.83,3.2,3.2,0,0,1,5.2.71,4,4,0,0,1,2.22-.66,4.1,4.1,0,0,1,4.08,3.77,2.29,2.29,0,0,1,1.36-.45,2.26,2.26,0,0,1,1.65.72,2.85,2.85,0,0,1,4.15-1.52,3.44,3.44,0,0,1,3.43-3.27,3.37,3.37,0,0,1,1.91.58,3.2,3.2,0,0,1,3-2.14v49.35H.05V116.07a8.62,8.62,0,0,1,7.41-4.21"/><polygon class="cls-6" points="88.84 135.14 79.38 135.14 86.21 133.15 88.13 131.45 89.56 130.83 92.61 132.5 96.63 132.02 100.57 129.5 101.29 127.67 104.83 125.81 107.04 123.46 113 125.02 114.17 126.7 115.7 130.55 117.67 129.83 118.32 131.69 119.75 132.25 120.94 131.61 122.23 130.12 123.53 129.72 124.77 128.99 126.58 129.5 129.09 133.01 133.08 133.16 135.28 133.89 141.14 135.14 88.84 135.14"/><path class="cls-6" d="M145.11,144.7a8.62,8.62,0,0,0-8.37,6.58,4.26,4.26,0,0,0-6,3.37,4.34,4.34,0,0,0-1.09-.14,4.28,4.28,0,0,0-4.29,4.28s0,0,0,.06a2.48,2.48,0,0,0-.54-.06,3.06,3.06,0,0,0-2.92,2.15,4.28,4.28,0,0,0-4.86-.34,4.28,4.28,0,0,0-6.61-2.93,2.84,2.84,0,0,0,.09-.72,3.06,3.06,0,0,0-3-3,3,3,0,0,0-1.66.5l0,0a8.63,8.63,0,0,0-15.71,3.84,4.83,4.83,0,0,0-3.32-1.32,4.76,4.76,0,0,0-3,1,5.54,5.54,0,0,0-4.44-2.23,5.28,5.28,0,0,0-1.55.22,5.54,5.54,0,0,0-9.42-3.68,2.61,2.61,0,0,0-2.6-2.45,2.42,2.42,0,0,0-.76.12s0-.08,0-.12A8.63,8.63,0,0,0,48,148.22a2.61,2.61,0,0,0-3.68,2.37,1.49,1.49,0,0,0,0,.21,3.19,3.19,0,0,0-3.95-.6,6.88,6.88,0,0,0-13.28-.83,3.2,3.2,0,0,0-5.2.71,4.09,4.09,0,0,0-6.3,3.12,2.23,2.23,0,0,0-1.36-.46,2.26,2.26,0,0,0-1.65.72,2.87,2.87,0,0,0-4.15-1.52A3.44,3.44,0,0,0,5,148.67a3.36,3.36,0,0,0-1.9.58,3.2,3.2,0,0,0-3-2.14v54.48H152.52V148.91a8.62,8.62,0,0,0-7.41-4.21"/><path class="cls-2" d="M52.41,198.53c-6.5,2.87-19,5.32-25.24-9.93S11.81,177.66,9.26,169.05a11.93,11.93,0,0,1,.11-10.12,17.63,17.63,0,0,0-.81-17.08,11.08,11.08,0,0,1-1.19-9.46c3.68-11.94,2.88-16.06-.81-25S4.64,86.48,7.3,90.68s11.12,1.4,13.11-5.23-1.32-8-3.83-9.21-6.19-.81-5.67,2.52,2.65,2.42,2.65,2.42-2.06-.12-.49-3.07,7.66,4.42.79,6.55-8-16.08-4.53-19.13S16.11,42.05,11.5,34,3.93,13.07,13.26,16.5s13.48-3.67,17.37-6S37.71,6.66,43,6.31L44.38,0H0V208.88H72.92v-7.76C67.54,199.83,58.9,195.65,52.41,198.53Z"/><path class="cls-2" d="M43.77,187.25l-7.2,5.15-14.14-.84,4,9.78-4.53,7.54h130.6v-7.29l-27.19-4.4s-17.67-.48-18.51,0S104,194,102.62,194s-31.54-1.68-31.54-1.68L60,187h0Z"/><path class="cls-3" d="M36.57,192.4l-7.76-.46a28.88,28.88,0,0,1-1.64-3.34c-6.26-15.25-15.36-10.94-17.91-19.55a11.91,11.91,0,0,1,.11-10.11C5.12,165,3.51,173.27,10.8,176.3s14.3,12.19,15.7,17.79H39.41l5.05-5.58,10.91-1.41-11.6.15Z"/><path class="cls-3" d="M4.35,88.6c3.36-1.82,5.25,4.45,10.3.45s6.94-9.25,2.84-11.67-5.63-.73-5.94.32-.18,3.25,1.86,3.45l.15,0s-2.14.91-2.65-2.42,3.17-3.77,5.67-2.52,5.82,2.58,3.83,9.21S10,94.88,7.3,90.68s-4.43,7.82-.74,16.73,4.5,13,.81,25c-.06.18-.09.36-.14.54.67-3.61,2-13.22-1.47-18.12C1.4,108.71,1,90.42,4.35,88.6Z"/><path class="cls-3" d="M35.23,7.73a5.54,5.54,0,0,1,.52-.29Z"/><path class="cls-3" d="M9.33,65.53a4.54,4.54,0,0,0,1-1.29c3-5.48,5.39-22.95,1.21-30.25-4-7-6.8-17.78-1.18-18.05a7.71,7.71,0,0,1,2.94.56,15.49,15.49,0,0,0,3.3.83c6.64.84,10.21-4.1,13.43-6.39-10.67,5-19.32-1.45-24,1.89C.77,16.61,2.87,31.54,9.33,40.58S9.33,65.53,9.33,65.53Z"/><path class="cls-2" d="M108.15,0H40.51L43,6.31a62.25,62.25,0,0,1,18.78.42c12.86,2.41,12.62,2.8,31.85-1s25.74,3.58,25.74,3.58c4,3.93,10.52,10.61,19.85,7.17S145.64,25.94,141,34s-1.28,28.5,2.16,31.54,2.36,21.27-4.52,19.13-.79-9.5.79-6.55-.5,3.07-.5,3.07,2.14.91,2.66-2.42-3.17-3.77-5.68-2.52-5.82,2.58-3.83,9.21,10.47,9.43,13.12,5.23,4.42,7.82.74,16.73-4.5,13-.82,25a11.12,11.12,0,0,1-1.18,9.46,17.63,17.63,0,0,0-.82,17.08,11.89,11.89,0,0,1,.11,10.12c-2.76,7.69-11.64,4.3-17.91,19.55s-18.73,12.8-25.23,9.93S85,199.83,79.6,201.12v7.76h72.92V0Z"/><path class="cls-3" d="M99.18,196.54l13.39,5.19h11.78a26.88,26.88,0,0,0,5-9.82c1.4-5.6,5.05-12.59,12.34-15.61s5.68-11.32,1.42-17.37a11.89,11.89,0,0,1,.11,10.12c-2.76,7.69-11.64,4.3-17.91,19.55a21.69,21.69,0,0,1-5.76,8.46c-5.23-.1-12.25-.17-12.77.13-.84.47-2.8-3.17-4.2-3.17-.55,0-5.43-.25-11.19-.57l-20.35-1.11,18.78,3.22Z"/><path class="cls-3" d="M148.18,88.6c-3.37-1.82-5.26,4.45-10.31.45S130.93,79.8,135,77.38s5.63-.73,5.95.32.17,3.25-1.86,3.45l-.16,0s2.14.91,2.66-2.42-3.17-3.77-5.68-2.52-5.82,2.58-3.83,9.21,10.47,9.43,13.12,5.23,4.42,7.82.74,16.73-4.5,13-.82,25c.06.18.09.36.14.54-.67-3.61-2-13.22,1.48-18.12C151.12,108.71,151.54,90.42,148.18,88.6Z"/><path class="cls-3" d="M117.3,7.73a5.65,5.65,0,0,0-.53-.29Z"/><path class="cls-3" d="M146.5,12.83c-5.26-3.79-15.68,5-28.34-4.54h0a7.65,7.65,0,0,1,1.25,1c4,3.93,10.52,10.61,19.85,7.17S145.64,25.94,141,34s-1.28,28.5,2.16,31.54c0,0-6.46-15.9,0-25S151.75,16.61,146.5,12.83Z"/><path class="cls-2" d="M40.51,196.82l18-2.18,7.69,1.44,4.91-1.44,3.92.71,4.31-1.26,9.94,4.22s3.73,4.19,1.31,4.29-22.81,0-24.18.21-9.46.53-10.51,0S40.51,196.82,40.51,196.82Z"/><polygon class="cls-6" points="106.96 78.48 117.56 78.48 109.91 76.25 107.77 74.34 106.16 73.65 102.75 75.52 98.24 74.99 93.83 72.17 93.01 70.11 89.05 68.03 86.57 65.4 79.89 67.15 78.59 69.02 76.86 73.35 74.66 72.53 73.93 74.62 72.33 75.25 71 74.53 69.55 72.86 68.09 72.41 66.7 71.59 64.68 72.17 61.87 76.1 57.39 76.26 54.93 77.08 48.36 78.48 106.96 78.48"/></g></g></svg>