<svg id="Слой_1" data-name="Слой 1" xmlns="http://www.w3.org/2000/svg" viewBox="0 0 643.26 817.46"><defs><style>.cls-1{fill:#fff;}.cls-2,.cls-3{fill:none;stroke:#000;stroke-miterlimit:10;}.cls-2{stroke-width:26px;}.cls-3{stroke-width:4px;}.cls-4{fill:#fff;}</style></defs><circle class="cls-1" cx="341.84" cy="524.11" r="282.5"/><path d="M1319.3,653.5a315.66,315.66,0,0,1-19.73,109.38c-.73,2.23-1.72,4.35-2.57,6.53l-2.64,6.52-.66,1.63-.73,1.6-1.48,3.19-3,6.4-.73,1.61-.81,1.56-1.61,3.14-3.24,6.27c-.52,1.06-1.11,2.08-1.71,3.1l-1.77,3.06-3.54,6.12a290.06,290.06,0,0,1-34,45.51A269.09,269.09,0,0,1,1092.88,942l-7.12,1.21-3.56.61-1.77.3c-.6.09-1.2.15-1.79.23l-7.17.83c-2.4.24-4.78.6-7.18.74-4.8.28-9.59.64-14.39.85l-14.4.06a281.66,281.66,0,0,1-110.87-25.69,309.52,309.52,0,0,1-154.2-157.86A302.24,302.24,0,0,1,745.88,653.5a282.91,282.91,0,0,1,81.17-208.45,293.28,293.28,0,0,1,95.12-65.16,286,286,0,0,1,55.5-17.16c4.78-.85,9.54-1.82,14.34-2.5s9.62-1.27,14.45-1.75,9.67-.77,14.5-1.05,9.7-.24,14.54-.31a287.13,287.13,0,0,1,112.94,23.72,275.29,275.29,0,0,1,92.93,66.79,291.56,291.56,0,0,1,34,45.62l3.55,6.13,1.77,3.07c.59,1,1.18,2,1.7,3.09l3.24,6.29,1.62,3.13.8,1.57.74,1.61,3,6.4,1.47,3.2.73,1.6.66,1.63,2.64,6.53c.85,2.18,1.83,4.31,2.56,6.54A312.76,312.76,0,0,1,1319.3,653.5Zm-2.6,0a260.19,260.19,0,0,0-6-54.75l-.34-1.69-.42-1.67-.84-3.34-1.7-6.67c-.51-2.23-1.28-4.4-2-6.59l-2.07-6.56c-.64-2.19-1.52-4.32-2.3-6.47l-2.4-6.43c-.76-2.16-1.76-4.22-2.66-6.33l-2.74-6.28c-.87-2.11-2-4.12-3-6.17l-3.08-6.11-.76-1.53-.84-1.49-1.69-3-3.37-5.94-.85-1.47-.93-1.44-1.84-2.88-3.67-5.73c-.6-1-1.26-1.89-1.92-2.82l-2-2.77-3.94-5.54a274.53,274.53,0,0,0-36.32-40,293.41,293.41,0,0,0-90.35-55.75l-6.2-2.31c-2.08-.75-4.11-1.61-6.24-2.22l-6.3-2c-2.11-.64-4.18-1.42-6.32-1.94l-6.39-1.72c-2.13-.55-4.23-1.22-6.4-1.63l-6.45-1.4-3.23-.71-1.61-.34-1.63-.27A280,280,0,0,0,932.6,405.05a273.59,273.59,0,0,0-88.17,57.38c-50.71,49.41-82,118.8-84.31,191.07a271.64,271.64,0,0,0,3.68,54.06A259.68,259.68,0,0,0,930.13,907.9a273.79,273.79,0,0,0,52,13.65,298.32,298.32,0,0,0,247.22-74.16,277.31,277.31,0,0,0,36.28-40.11l3.93-5.55,2-2.78c.66-.92,1.32-1.85,1.91-2.81l3.68-5.75,1.84-2.88.92-1.44.85-1.47,3.37-6,1.69-3,.84-1.49.76-1.53,3.08-6.11c1-2,2.1-4.07,3-6.18l2.74-6.29c.89-2.1,1.89-4.17,2.65-6.33l2.4-6.44c.77-2.15,1.65-4.28,2.29-6.48l2.07-6.56c.67-2.19,1.43-4.36,1.94-6.6l1.68-6.68.85-3.34.41-1.67.34-1.69A256.5,256.5,0,0,0,1316.7,653.5Z" transform="translate(-693.66 -129.39)"/><circle cx="341.84" cy="524.11" r="26.5"/><polyline class="cls-2" points="286.48 427.93 342.18 523.82 425.11 475.65"/><path d="M982.2,560.84c14.48,3.84,35.13-2.32,47.91-9.26-24.17-2.76-48.37-10.53-68.1-25.49,3.57,24.34-3,49-11.6,71.79C963.25,589,977.67,576.2,982.2,560.84Z" transform="translate(-693.66 -129.39)"/><path d="M1115.24,607.09c-14.48-3.84-29.37-19.42-37-31.78,22.37,9.58,47.24,14.81,71.79,11.6-15.16,19.37-21.7,44.05-25.49,68.1C1117.76,640.92,1111.56,622.67,1115.24,607.09Z" transform="translate(-693.66 -129.39)"/><path d="M809,653a28.44,28.44,0,0,1,2.94-3.6,33.8,33.8,0,0,1,2.94-2.76,30.37,30.37,0,0,1,5.87-3.84,26.22,26.22,0,0,1,23.5,0,30.34,30.34,0,0,1,5.88,3.85,35.42,35.42,0,0,1,2.93,2.77A28.72,28.72,0,0,1,856,653a28.72,28.72,0,0,1-2.94,3.62,35.42,35.42,0,0,1-2.93,2.77,30.34,30.34,0,0,1-5.88,3.85,26.22,26.22,0,0,1-23.5,0,30.37,30.37,0,0,1-5.87-3.84,33.8,33.8,0,0,1-2.94-2.76A28.44,28.44,0,0,1,809,653Z" transform="translate(-693.66 -129.39)"/><path d="M1219,653a28.44,28.44,0,0,1,2.94-3.6,33.8,33.8,0,0,1,2.94-2.76,30.37,30.37,0,0,1,5.87-3.84,26.22,26.22,0,0,1,23.5,0,30.34,30.34,0,0,1,5.88,3.85,35.42,35.42,0,0,1,2.93,2.77A28.72,28.72,0,0,1,1266,653a28.72,28.72,0,0,1-2.94,3.62,35.42,35.42,0,0,1-2.93,2.77,30.34,30.34,0,0,1-5.88,3.85,26.22,26.22,0,0,1-23.5,0,30.37,30.37,0,0,1-5.87-3.84,33.8,33.8,0,0,1-2.94-2.76A28.44,28.44,0,0,1,1219,653Z" transform="translate(-693.66 -129.39)"/><path d="M1038,422a28.44,28.44,0,0,1,3.6,2.94,33.8,33.8,0,0,1,2.76,2.94,30.37,30.37,0,0,1,3.84,5.87,26.22,26.22,0,0,1,0,23.5,30.34,30.34,0,0,1-3.85,5.88,35.42,35.42,0,0,1-2.77,2.93A28.72,28.72,0,0,1,1038,469a28.72,28.72,0,0,1-3.62-2.94,35.42,35.42,0,0,1-2.77-2.93,30.34,30.34,0,0,1-3.85-5.88,26.22,26.22,0,0,1,0-23.5,30.37,30.37,0,0,1,3.84-5.87,33.8,33.8,0,0,1,2.76-2.94A28.44,28.44,0,0,1,1038,422Z" transform="translate(-693.66 -129.39)"/><path d="M1038,832a28.44,28.44,0,0,1,3.6,2.94,33.8,33.8,0,0,1,2.76,2.94,30.37,30.37,0,0,1,3.84,5.87,26.22,26.22,0,0,1,0,23.5,30.34,30.34,0,0,1-3.85,5.88,35.42,35.42,0,0,1-2.77,2.93A28.72,28.72,0,0,1,1038,879a28.72,28.72,0,0,1-3.62-2.94,35.42,35.42,0,0,1-2.77-2.93,30.34,30.34,0,0,1-3.85-5.88,26.22,26.22,0,0,1,0-23.5,30.37,30.37,0,0,1,3.84-5.87,33.8,33.8,0,0,1,2.76-2.94A28.44,28.44,0,0,1,1038,832Z" transform="translate(-693.66 -129.39)"/><path d="M996,773.45c-.33,15.12-19.09,27-41.9,26.49s-41-13.15-40.71-28.27,17.65-37.27,40.46-36.78S996.35,758.33,996,773.45Z" transform="translate(-693.66 -129.39)"/><path class="cls-3" d="M977.93,744.13s11.39-18.16,25-25.36,42.7,2,42.7,2" transform="translate(-693.66 -129.39)"/><path class="cls-3" d="M991.63,760.67s16.56-13.47,28.43-9.16,18.53,9.34,18.53,9.34" transform="translate(-693.66 -129.39)"/><path class="cls-3" d="M993.38,778.37s19.54-2,24.52,9.9-11.62,30.78-11.62,30.78" transform="translate(-693.66 -129.39)"/><path class="cls-3" d="M930.86,742.73s-12.86-17.14-27-23.18-42.39,5.56-42.39,5.56" transform="translate(-693.66 -129.39)"/><path class="cls-3" d="M917.21,761.6s-17.63-12-29.09-6.76-17.7,10.87-17.7,10.87" transform="translate(-693.66 -129.39)"/><path class="cls-3" d="M916.94,779.39s-19.63-.37-23.6,11.9S907.49,821,907.49,821" transform="translate(-693.66 -129.39)"/><ellipse class="cls-4" cx="944.29" cy="754.79" rx="3.71" ry="7.43" transform="translate(-788.94 8.4) rotate(-7.95)"/><ellipse class="cls-4" cx="961.46" cy="752.14" rx="3.71" ry="7.43" transform="matrix(0.99, -0.14, 0.14, 0.99, -788.41, 10.74)"/><line class="cls-3" x1="261.15" y1="605.45" x2="261.15" y2="464.61"/><path d="M817.76,136.54S900.92,253.47,1011,264.62s184.42-135.23,184.42-135.23L1336.92,180s-75.2,14-94.16,48.81,2.14,90,2.14,90-54.44-60.81-90.09-35-20.25,89.57-20.25,89.57-49.63-43.2-64.39-42.69-4.7,25.73-9.46,26.69-12-22.35-22.91-21.37-6.15,18.59-10.9,19.55-5.78-22.36-26.74-28-57.54,33.95-57.54,33.95-4.4-46.18-35.9-73.24-71.42,2.09-71.42,2.09S826,208,693.66,208.76Z" transform="translate(-693.66 -129.39)"/><path d="M987.22,269.11s1.38-16.84,12.41-21.85c0,0-6.62-9-12-26.4,0,0,22.61,1.9,32.25,12.92,0,0,13.88-4.67,19.57-4,0,0,16.69-18.2,28.44-19.65,0,0,3.24,16-4.56,27.78,0,0,24.83,17.53,20,39.47S1021.11,294.66,987.22,269.11Z" transform="translate(-693.66 -129.39)"/><ellipse class="cls-4" cx="1018.35" cy="261.11" rx="4" ry="8" transform="translate(-705.56 -77.58) rotate(-2.9)"/><ellipse class="cls-4" cx="1047.31" cy="259.64" rx="4" ry="8" transform="translate(-705.45 -76.11) rotate(-2.9)"/></svg>