<svg width="276" height="131" viewBox="0 0 276 131" fill="none" xmlns="http://www.w3.org/2000/svg">
<path d="M238.2 65.6869C232.381 58.8963 220.634 58.7154 211.657 58.3963C195.756 57.8178 179.548 57.2675 163.726 58.2927C145.669 59.4705 127.985 62.8522 110.023 64.61C98.0035 65.8059 85.9071 65.4446 73.8671 66.3384C66.7985 66.849 59.4666 67.2009 52.3231 67.0148C49.6231 66.9425 47.3873 66.6765 44.9773 67.5764C42.5656 68.453 39.322 69.0641 37.5742 70.6278L36.5926 70.6438C35.3229 70.9668 36.294 73.7191 37.4392 74.4681C41.4048 77.0786 49.3942 76.902 54.0168 77.1757C59.0632 77.4889 64.0691 77.1981 69.0952 77.2093C76.0298 77.2127 82.9615 78.0071 89.8868 78.2898C104.61 78.8875 119.255 79.5795 133.986 79.8747C156.898 80.3392 179.548 80.2496 202.307 78.4369C208.228 77.9683 214.357 77.6824 220.374 77.8171C225.546 77.919 229.521 78.5754 234.265 76.4744C236.609 75.436 239.437 73.6454 240.446 71.5355C241.535 69.3544 239.754 67.4993 238.2 65.6869Z" fill="black"/>
<path d="M241.727 91.0314C235.908 84.2408 224.161 84.0599 215.182 83.7176C199.281 83.139 183.073 82.5887 167.252 83.6139C149.195 84.7918 131.51 88.1734 113.549 89.9313C101.529 91.1272 89.4325 90.7659 77.3924 91.6597C70.3238 92.1702 62.9919 92.5222 55.8485 92.3361C53.1485 92.2637 50.9127 91.9977 48.5026 92.8976C46.091 93.7743 42.8473 94.3854 41.0995 95.9491L40.118 95.965C38.8483 96.2881 39.8193 99.0404 40.9646 99.7894C44.9301 102.4 52.9195 102.223 57.5422 102.497C62.5886 102.81 67.5944 102.519 72.6205 102.531C79.5552 102.534 86.4868 103.328 93.4122 103.611C108.135 104.209 122.781 104.901 137.512 105.196C160.424 105.66 183.074 105.571 205.833 103.758C211.753 103.29 217.882 103.004 223.899 103.138C229.072 103.24 233.046 103.897 237.79 101.796C240.135 100.757 242.962 98.9667 243.971 96.8567C245.062 94.6989 243.281 92.8438 241.727 91.0314Z" fill="black"/>
<path d="M232.44 92.6107C221.073 93.0769 209.613 94.1484 198.048 94.2226C185.278 94.291 172.453 96.5435 159.417 95.3615C148.159 94.3397 136.586 92.5094 125.108 92.9773C121.981 93.1154 118.864 93.3927 115.929 94.2016C113.543 94.8632 111.979 96.3723 109.332 96.2015C107.277 96.0686 105.28 94.8897 103.133 94.6652C100.733 94.4211 98.2658 94.7588 95.8464 94.6311C86.1708 94.1438 76.8686 95.579 67.3129 95.5545C62.8019 95.55 58.3666 95.7999 53.9097 95.7714C50.63 95.7491 43.4182 94.8778 40.5065 95.9883C36.6406 97.4378 39.3468 102.346 39.5312 105.084C39.6374 106.453 39.0517 109.736 39.8431 110.909C40.9188 112.497 43.3827 111.392 44.8468 112.207C43.0555 112.953 41.1164 113.237 39.1654 113.73C38.7129 114.758 37.3787 118.145 38.3011 119.2C39.3462 120.393 43.555 119.752 44.9714 119.592C51.076 118.83 57.9413 119.567 64.4347 119.845C82.3686 120.608 100.643 119.623 118.68 120.269C126.463 120.551 134.222 119.812 142.069 119.838C151.848 119.859 161.181 118.098 170.9 117.702C181.291 117.297 191.509 116.824 201.981 116.742C208.645 116.692 215.539 117.08 222.381 116.796C227.743 116.579 233.33 116.359 238.718 116.838C240.468 116.999 243.914 118.087 245.376 117.067C246.757 116.095 246.378 113.011 246.322 111.572C246.256 109.994 246.174 106.766 244.867 105.81C244.154 105.286 242.082 106.384 241.862 104.994C241.642 103.603 244.288 104.494 244.754 104C245.639 103.127 244.702 100.075 243.544 99.2324C242.148 98.2074 238.274 98.4724 236.559 98.4043C235.323 98.3525 234.188 98.5315 233.088 98.0829C235.22 95.59 244.369 97.5947 244.533 94.6425C244.722 90.9467 235.065 92.5031 232.44 92.6107Z" fill="#542200" fill-opacity="0.7"/>
<path d="M242.327 114.369C235.618 114.131 229.357 112.724 222.619 112.487C213.345 112.175 204.157 111.891 194.86 112.033C185.003 112.212 175.037 112.053 165.263 112.599C156.442 113.103 148.127 114.365 139.344 115.009C130.337 115.658 120.394 115.81 111.292 115.155C100.353 114.387 89.3426 110.699 78.35 112.654C73.8815 113.459 69.9819 114.738 65.3305 115.348C61.0702 115.924 56.6831 116.303 52.2857 116.541C48.8974 116.734 45.3719 116.59 41.9815 116.755C40.5532 116.834 38.7679 117.031 37.1388 117.056C37.1302 117.708 37.1996 118.274 37.4512 118.639C38.5137 120.098 42.7314 119.324 44.1515 119.132C50.2709 118.216 57.1708 119.131 63.6922 119.485C81.7034 120.457 100.037 119.298 118.15 120.126C125.966 120.489 133.746 119.604 141.624 119.654C151.441 119.702 160.79 117.574 170.542 117.113C180.968 116.641 191.219 116.087 201.73 116.011C208.419 115.966 215.344 116.455 222.209 116.123C227.59 115.871 233.195 115.615 238.61 116.212C240.368 116.412 243.839 117.749 245.295 116.507C245.772 116.103 246.029 115.39 246.166 114.565C244.82 114.614 243.174 114.413 242.327 114.369Z" fill="#A55508"/>
<path d="M237.952 104.681C234.57 104.799 230.487 104.564 227.272 104.994C231.54 105.419 236.07 105.624 240.356 105.929C242.076 106.051 244.218 106.191 246.286 106.454C246.084 105.732 245.833 105.083 245.434 104.677C242.885 104.687 240.243 104.602 237.952 104.681Z" fill="#A55508"/>
<path d="M63.5576 103.4C72.4453 104.184 82.5282 105.19 91.6323 105.235C96.5909 105.265 100.558 105.165 104.997 104.679C107.521 104.408 115.37 103.853 116.23 102.797C114.714 102.746 113.35 102.836 111.897 102.879C101.096 103.283 90.1563 103.38 79.7543 101.596C75.2916 100.824 71.1579 99.6452 66.7669 98.7304C64.9122 98.3278 60.9434 97.7634 58.3868 97.0142C56.8785 97.0579 55.3682 97.0779 53.8258 97.0508C50.5474 97.0231 43.3295 96.122 40.4309 97.252C38.1531 98.1128 38.1952 100.224 38.6329 102.378C45.1299 101.414 59.4115 103.052 63.5576 103.4Z" fill="#A55508"/>
<path d="M233.66 98.5817C227.417 98.418 220.809 97.9099 214.605 98.22C205.271 98.673 196.064 99.3239 186.71 99.877C169.089 100.918 150.007 100.557 134.092 104.595C127.193 106.338 124.571 109.943 116.974 111.396C108.769 112.957 100.146 111.153 91.8601 110.369C82.1041 109.455 72.212 108.592 62.3131 108.329C57.1675 108.2 51.9645 108.397 46.799 108.368C44.7769 108.346 41.5133 108.241 39.1691 108.398C39.1672 109.397 39.2711 110.319 39.6246 110.863C40.7192 112.57 43.1754 111.388 44.6507 112.267C42.8644 113.065 40.925 113.366 38.9761 113.893C38.743 114.47 38.2891 115.774 38.0254 117.001C38.7582 117.041 39.4329 117.056 39.9956 117.074C43.7575 117.097 47.1647 116.9 50.7721 116.751C60.6416 116.315 69.5669 115.319 78.6083 113.347C88.2281 111.242 98.6632 115.292 108.52 115.381C119.219 115.484 130.199 115.932 140.643 115.314C146.34 114.986 152.015 114.383 157.702 113.931C165.062 113.355 172.64 113.375 179.965 112.7C187.511 111.998 195.575 112.461 203.195 111.981C211.321 111.495 218.795 112.64 226.849 113.328C232.105 113.78 237.467 113.806 242.745 114.183C243.564 114.246 245.196 114.299 246.53 114.48C246.524 113.731 246.493 113.008 246.446 112.434C244.639 112.309 242.643 112.262 241.255 112.106C238.196 111.749 235.173 111.167 232.076 111.035C225.853 110.771 219.721 110.93 213.573 110.565C199.783 109.732 186.513 111.462 172.568 111.13C165.482 110.953 158.806 109.622 151.946 109.117C150.14 108.992 146.873 109.187 145.554 108.506C143.678 107.534 145.991 106.653 147.98 106.276C150.356 105.819 153.559 105.875 156.186 105.739C160.6 105.503 165.034 105.168 169.502 104.907C181.233 104.246 192.674 102.79 204.475 102.303C213.618 101.903 222.403 101.932 231.533 102.056C236.056 102.118 240.546 101.782 244.988 101.546C244.753 100.401 244.148 99.1862 243.517 98.6707C243.456 98.6216 243.396 98.5725 243.31 98.5487C240.047 98.7933 235.656 98.6291 233.66 98.5817Z" fill="#A55508"/>
<path d="M229.433 102.298C221.657 102.552 213.894 102.633 206.179 103.279C200.135 103.779 194.073 103.739 188.073 104.091C178.306 104.691 168.562 105.217 159.006 105.987C156.277 106.221 153.181 106.091 150.602 106.446C151.609 107.76 160.249 108.11 162.935 108.369C167.801 108.868 172.515 109.567 177.594 109.596C187.948 109.652 197.54 108.316 208.175 108.368C216.818 108.422 225.473 108.624 233.939 109.247C238.06 109.56 242.001 110.072 246.256 110.309C246.368 110.308 246.454 110.331 246.566 110.33C246.545 109.74 246.488 109.052 246.4 108.34C241.39 107.793 236.838 107.019 231.467 106.846C225.477 106.657 219.379 106.174 213.317 106.133C202.735 106.031 193.357 107.586 183.096 107.971C179.378 108.12 173.601 108.47 169.992 107.904C170.028 106.993 180.435 106.679 182.688 106.452C187.496 105.919 192.267 104.944 197.161 104.779C209.773 104.337 222.634 104.851 235.079 104.091C237.45 103.936 239.713 103.831 242.039 103.799C242.173 102.715 244.481 103.496 244.947 103.022C245.178 102.773 245.284 102.353 245.273 101.886C239.802 101.862 234.803 102.127 229.433 102.298Z" fill="#A55508"/>
<path d="M232.673 92.6784C221.297 93.153 209.835 94.2685 198.256 94.3277C185.471 94.3787 172.655 96.7426 159.591 95.469C148.308 94.3679 136.701 92.4102 125.214 92.8864C122.084 93.0274 118.967 93.3158 116.037 94.1675C113.655 94.8642 112.105 96.4597 109.453 96.2744C107.394 96.1302 105.382 94.8784 103.231 94.637C100.825 94.3746 98.358 94.728 95.9343 94.5887C86.2417 94.0564 76.9434 95.5607 67.3758 95.5187C66.085 95.5116 64.8243 95.5288 63.5356 95.5463C65.6259 96.0591 67.6662 96.6464 69.5562 97.1127C74.1651 98.2308 78.1686 98.8159 83.1328 99.4864C95.5573 101.162 108.401 100.127 121.067 100.668C122.84 100.742 127.119 100.93 125.242 101.964C124.516 102.343 119.604 102.631 118.27 102.772C111.709 103.476 105.945 104.982 98.8714 105.25C87.3496 105.653 76.7413 104.567 65.475 103.663C59.2905 103.157 53.0178 102.602 46.7164 102.713C44.169 102.772 41.6681 103.052 39.1509 103.136C39.3648 104.018 39.5746 104.852 39.632 105.54C39.6709 106.007 39.6443 106.696 39.5958 107.459C47.0766 106.693 61.1239 107.314 63.6958 107.549C73.5894 108.473 83.4125 109.225 93.332 110.123C98.0236 110.551 102.984 111.172 107.709 111.329C113.22 111.5 115.996 110.823 119.761 109.222C126.447 106.326 131.595 102.812 141.277 101.869C146.007 101.411 150.931 101.27 155.824 101.08C161.164 100.884 166.242 100.225 171.514 99.8825C181.477 99.2795 191.789 99.5081 201.741 98.7822C211.97 98.0034 222.687 98.7186 232.972 97.9389C233.306 97.9098 233.64 97.8806 233.974 97.8515C236.856 96.0902 244.616 97.6574 244.768 94.7771C244.952 90.9368 235.3 92.5688 232.673 92.6784Z" fill="#A55508"/>
<g opacity="0.5">
<path d="M244.619 105.438C243.9 104.89 241.838 106.033 241.604 104.582C241.37 103.13 244.027 104.064 244.488 103.549C245.365 102.64 244.396 99.4528 243.229 98.5715C243.018 98.4046 242.756 98.2869 242.438 98.1699C243.073 99.0584 242.792 101.05 243.294 102.013C238.554 100.647 239.32 107.086 243.671 106.494C243.944 108.405 244.491 110.241 244.484 112.156C244.5 115.017 243.813 114.517 240.982 114.846C236.846 115.338 233.005 115.996 228.443 115.742C203.847 114.279 176.145 110.87 152.722 117.344C143.326 119.943 131.15 117.828 121.182 117.963C115.133 118.044 108.826 117.377 102.897 118.209C97.938 118.906 93.8845 118.039 88.8541 117.889C78.0331 117.55 67.3883 117.305 56.6406 116.504C51.2818 116.116 46.1048 116.889 40.9043 116.716C39.9482 116.681 38.8643 116.792 37.7647 117.05C37.64 117.9 37.6752 118.651 38.0178 119.059C39.0758 120.305 43.2809 119.642 44.6967 119.478C50.7978 118.692 57.6753 119.473 64.176 119.773C82.13 120.598 100.407 119.6 118.463 120.303C126.254 120.61 134.011 119.851 141.863 119.89C151.65 119.928 160.971 118.106 170.693 117.708C181.087 117.301 191.307 116.824 201.785 116.756C208.453 116.714 215.356 117.131 222.2 116.844C227.564 116.627 233.152 116.406 238.549 116.915C240.301 117.086 243.761 118.227 245.213 117.165C246.586 116.152 246.175 112.933 246.105 111.431C246.052 109.807 245.937 106.439 244.619 105.438Z" fill="black"/>
<path d="M231.154 97.6069C232.179 97.6379 233.144 97.6037 234.083 97.5918C236.284 95.3608 245.13 97.1873 245.264 94.4097C245.322 93.2194 244.271 92.6158 242.725 92.327C242.706 92.7238 242.661 93.143 242.5 93.4975C241.375 96.0232 234.186 95.6958 231.048 96.749C231.074 97.0351 231.098 97.2992 231.154 97.6069Z" fill="black"/>
</g>
<path d="M34.3841 78.9996C36.4219 82.8627 39.7604 83.6487 44.5223 84.3679C43.2614 84.3629 38.2305 83.7866 37.3875 84.4707C36.3333 85.3199 37.3079 89.1984 37.4504 90.3084C37.7174 92.2972 37.1819 97.2863 39.191 98.6244C40.9951 99.8495 76.4958 98.5507 91.4161 98.4285C109.472 98.2844 127.442 98.1184 145.526 97.9739L149.325 98.1972C151.927 98.878 158.004 96.7053 161.142 96.3589C164.614 95.9845 168.459 95.7206 171.971 95.8554C179.161 96.0995 186.246 97.1559 193.552 97.0971C208.389 96.9762 242.671 95.857 244.411 95.1832C246.532 94.3649 245.883 92.8683 245.861 90.7833C245.844 88.7678 246.415 87.1146 245.756 85.1315C245.239 83.5171 244.446 81.9762 243.923 80.2923C242.611 80.3575 241.149 80.2859 239.895 80.0028C241.674 78.0309 245.925 80.1013 247.005 77.792C248.298 74.9699 245.216 73.1607 242.376 73.3869C242.607 67.3596 233.973 69.0826 228.712 69.1352C215.584 69.2546 162.591 70.3883 148.927 71.535C139.437 72.3204 129.597 70.4231 120.058 71.3019C110.269 72.2074 62.2423 68.7747 45.1882 71.7079C42.2025 72.2142 32.7654 70.4502 32.1262 72.313C31.5458 73.8505 33.5935 77.4818 34.3841 78.9996Z" fill="#542200" fill-opacity="0.7"/>
<path d="M223.914 92.7439C210.9 93.2374 197.16 93.4224 184.146 92.753C166.617 91.8632 149.213 90.361 131.505 90.5206C121.47 90.5897 112.743 93.2259 103.055 94.2199C95.3209 95.0091 89.3734 93.6481 81.9453 93.2115C71.9461 92.6114 62.5576 94.6474 52.7696 95.0324C48.0862 95.2217 41.8401 95.5807 36.9061 95.0179C37.1464 96.4097 37.5428 97.6245 38.2607 98.2239C40.0867 99.7653 75.7229 98.2216 90.7051 98.1045C108.836 97.9674 126.88 97.8026 145.039 97.665L148.857 97.9544C151.48 98.8438 157.555 96.1036 160.703 95.6766C164.185 95.2154 168.044 94.8936 171.572 95.0712C178.795 95.3947 185.923 96.7373 193.259 96.6812C208.157 96.5653 242.572 95.2442 244.311 94.4031C245.642 93.7428 245.883 92.7796 245.845 91.472C239.745 92.2938 225.851 92.6847 223.914 92.7439Z" fill="#A55508"/>
<path d="M43.7538 87.5108C46.5546 87.4975 49.2975 87.4609 51.9835 87.0882C54.032 86.7961 53.9255 86.5327 55.9398 86.1689C57.8163 85.831 91.0086 86.3511 92.6052 86.0169C91.9614 86.0255 63.7206 84.4285 63.0748 84.413C60.8617 84.4184 56.8553 84.4237 54.6257 84.2368C52.0302 84.0308 49.8702 83.6745 47.2863 83.2757C44.7303 82.8766 42.2126 82.5972 39.6743 82.0775C38.5902 81.8513 36.6912 81.9247 35.209 81.6316C37.2961 84.0829 40.2665 84.7413 44.1585 85.3633C42.8969 85.356 37.8574 84.7493 37.0215 85.4585C36.6823 85.7518 36.5699 86.4032 36.5518 87.1736C38.9069 87.1904 41.3748 87.5425 43.7538 87.5108Z" fill="#A55508"/>
<path d="M37.7444 80.4476C40.2006 80.7181 42.6206 80.896 45.0911 81.3292C49.7467 82.1295 54.1231 82.9334 58.8112 83.1516C62.432 83.3139 66.0119 83.0113 69.6409 83.2666C73.3258 83.5211 76.9943 83.5897 80.7071 83.8438C82.6483 83.9814 84.5943 84.4913 86.5593 84.582C88.4964 84.6732 90.443 84.5547 92.3822 84.6691C95.279 84.8641 98.1635 84.9196 101.054 85.0448C100.683 85.9106 97.5699 86.114 96.521 86.2672C93.7572 86.629 90.9523 86.5259 88.1196 86.4231C83.1821 86.2315 78.7258 87.0573 73.8081 86.7723C69.5927 86.5247 63.6935 86.2059 59.5675 86.6552C56.9909 86.9214 55.094 86.9694 52.6981 87.6986C50.6011 88.3308 48.5169 88.4743 46.3034 88.7358C43.1485 89.1026 39.9956 88.5387 36.8236 88.3938C36.9717 89.4389 37.1973 90.4132 37.2724 90.9474C39.4506 90.9191 41.981 91.398 43.2003 91.5916C46.4868 92.0839 49.3667 92.7212 52.6652 92.3991C56.1313 92.0747 59.4578 91.7522 62.7958 91.2434C65.9682 90.76 68.7651 89.188 72.326 89.3045C77.0938 89.4751 81.8853 88.6449 86.6415 89.0018C91.8487 89.3994 96.0532 89.2051 101.175 88.9522C110.946 88.476 124.815 87.2252 133.773 84.8284C130.484 84.6152 122.204 83.9319 119.016 82.9729C115.712 81.9689 113.585 80.6703 110.106 80.5294C103.654 80.2877 97.1408 80.9309 90.5205 80.9938C80.6008 81.0531 70.5033 80.9984 60.6584 80.6379C55.723 80.4695 50.8661 80.556 46.047 79.8043C42.533 79.2684 37.0555 79.2932 33.2969 78.202C33.5995 78.7797 33.868 79.2881 34.0683 79.6578C34.2005 79.8887 34.3027 80.0968 34.4328 80.3045C35.5335 80.1041 36.9264 80.3651 37.7444 80.4476Z" fill="#A55508"/>
<path d="M149.455 71.6223C139.945 72.4954 130.054 70.3207 120.495 71.2998C117.958 71.5466 112.897 71.4875 106.476 71.2898C109.717 72.1384 113.092 72.5375 116.562 72.7248C124.687 73.1612 133.15 73.2507 141.236 74.2667C150.826 75.4719 159.329 78.2191 168.959 77.7918C178.533 77.3653 188.393 77.3558 197.821 76.5102C202.759 76.071 207.583 75.6072 212.664 75.5608C217.576 75.5168 222.084 74.61 226.898 74.3832C231.798 74.1815 236.552 73.9029 241.167 73.6526C241.783 73.6174 242.482 73.5811 243.208 73.5181C243.015 67.1512 234.622 69.0085 229.456 69.0561C216.29 69.1655 163.15 70.3735 149.455 71.6223Z" fill="#A55508"/>
<path d="M235.061 74.7025C225.127 75.0124 215.057 76.3939 205.256 77.299C185.964 79.1051 165.189 80.6329 145.884 76.8919C135.42 74.8708 125.253 74.7362 114.641 73.6376C109.999 73.1538 105.653 72.1684 101.355 71.0829C83.9699 70.5246 59.9861 69.559 47.5229 71.1722C50.7457 72.8197 53.6458 74.2974 54.611 74.4335C58.5579 75.0014 62.8901 75.1412 66.9482 75.3593C76.1056 75.8311 85.5798 75.7264 94.6938 75.6764C99.488 75.6358 103.532 75.68 108.101 76.314C112.302 76.9033 116.987 77.2373 121.392 77.5751C125.909 77.9113 130.556 78.1214 134.857 78.9084C138.731 79.6017 142.299 81.0205 146.031 82.0391C150.049 83.1285 154.471 84.0133 158.7 84.6022C162.93 85.1911 167.23 84.61 171.332 84.6782C171.218 84.6549 171.186 84.6056 171.207 84.5307C174.893 84.6544 178.915 84.1019 182.572 83.8778C186.341 83.6521 190.354 83.6719 194.207 83.4451C204.065 82.8874 213.608 83.2793 223.424 83.568C228.232 83.7012 233.115 83.7091 238.033 83.816C240.422 83.858 242.647 84.3002 245.087 84.2917C245.255 84.2894 245.423 84.2871 245.591 84.2848C245.198 83.2703 244.748 82.2317 244.433 81.1414C243.12 81.2091 241.654 81.1297 240.394 80.8235C242.155 78.7099 246.436 80.9399 247.493 78.4628C248.104 77.0365 247.695 75.8232 246.812 74.9895C242.412 75.0497 237.383 74.621 235.061 74.7025Z" fill="#A55508"/>
<path d="M239.7 84.0763C234.747 84.118 229.902 83.7778 225.02 83.6759C209.678 83.3793 195.148 83.7378 179.977 84.4615C172.196 84.8259 164.256 85.2875 156.46 84.5108C149.851 83.861 145.397 81.5658 139.166 80.4355C130.036 78.7966 120.281 78.3548 110.955 77.3605C100.443 76.263 90.1426 76.637 79.4281 76.7548C73.4405 76.8102 66.1034 76.4791 60.1162 75.8925C57.8581 75.6846 50.5948 73.6167 44.2742 71.4413C40.6764 71.6078 32.6014 70.1927 32.0263 71.9599C31.7168 72.9151 32.2781 74.5484 32.941 76.0615C36.4724 74.8021 47.1978 76.7528 49.9614 76.9779C57.8567 77.6106 65.81 78.2664 73.725 78.8038C86.4557 79.658 99.0641 77.8031 111.891 78.7986C116.937 79.1837 121.241 82.004 126.461 82.4582C129 82.6862 138.511 82.8933 139.172 85.3576C133.025 86.4851 126.623 86.2843 120.476 88.0539C112.987 90.174 106.159 89.9076 98.128 89.9662C87.6072 90.0577 76.813 88.6072 67.1089 91.0182C61.9015 92.3235 56.451 93.0852 50.8357 92.5887C46.7451 92.2385 41.5617 91.879 37.6972 92.5246C37.7371 93.3088 37.7551 94.1645 37.829 95.0196C40.1287 95.0605 42.9545 95.3561 43.8516 95.368C47.6719 95.5077 51.6634 95.3598 55.4952 95.3092C63.4107 95.2046 70.282 93.7108 78.1061 93.8452C87.3329 94.0085 97.2155 95.2808 106.101 94.0933C115.211 92.9029 124.162 90.5256 133.81 90.7072C143.431 90.8892 153.147 90.8796 162.72 91.4902C172.24 92.1253 181.611 93.3092 191.423 93.4411C201.207 93.5733 210.813 93.589 220.578 93.5075C225.671 93.464 230.203 93.0949 235.08 92.8165C238.284 92.6315 242.423 92.2438 246.015 92.339C245.986 92.0065 245.953 91.6265 245.949 91.2461C245.91 89.1779 246.463 87.4823 245.783 85.4464C245.632 84.9966 245.483 84.5705 245.306 84.1449C243.322 84.1949 241.212 84.0801 239.7 84.0763Z" fill="#A55508"/>
<g opacity="0.5">
<path d="M240.185 70.3051C240.715 71.116 241.13 71.8423 241.37 72.7C241.809 74.2867 241.09 73.7579 242.998 74.3792C244.545 74.876 247.865 76.2755 244.716 77.0471C243.93 77.2507 237.762 76.9632 238.958 78.9061C239.302 79.4396 240.774 79.3995 242.264 79.273C241.803 79.2143 241.368 79.1552 240.93 79.0532C242.614 77.2244 246.705 79.1521 247.717 77.009C248.927 74.3901 245.957 72.7063 243.24 72.913C243.337 69.2753 239.903 68.6733 236.123 68.6998C237.156 69.4398 238.822 68.8807 240.185 70.3051Z" fill="black"/>
</g>
<path d="M35.3262 47.7447C30.6265 47.7934 26.4249 44.6767 25.9438 40.8287C25.46 36.9591 28.9013 33.7847 33.5748 33.7363C38.2745 33.6875 42.4761 36.8042 42.9573 40.6522C43.4646 44.5 40.026 47.6959 35.3262 47.7447ZM33.8532 35.9629C30.6763 35.9959 28.3446 38.163 28.6716 40.7788C28.9987 43.3945 31.8655 45.5078 35.0424 45.4748C38.2193 45.4419 40.551 43.2747 40.224 40.6589C39.9232 38.0429 37.0563 35.9297 33.8532 35.9629Z" fill="black"/>
<g opacity="0.5">
<path d="M35.3502 46.9877C31.0968 47.0317 27.301 44.2137 26.8664 40.7332C26.4291 37.2311 29.5412 34.3633 33.7683 34.3195C38.0217 34.2755 41.8148 37.0719 42.2521 40.574C42.6867 44.0545 39.5773 46.9439 35.3502 46.9877ZM33.8601 35.0545C30.1056 35.0934 27.3993 37.6323 27.7826 40.7021C28.1686 43.7935 31.5247 46.248 35.253 46.2094C38.9813 46.1709 41.7138 43.6316 41.3305 40.5619C40.9472 37.4921 37.5884 35.016 33.8601 35.0545Z" fill="#E49A32"/>
</g>
<path d="M30.6075 35.4904C30.2136 35.4519 29.7724 35.457 29.4536 35.6325L29.0357 35.8521C28.4539 36.7183 27.5 37.2663 27.036 38.26C26.8063 38.7783 26.6874 39.3599 26.6677 39.8973C26.6313 40.5208 26.9036 41.3557 27.4924 40.554C28.1283 39.7087 27.8544 38.3796 28.4598 37.4917C28.8665 36.9284 30.8093 36.1543 30.6075 35.4904Z" fill="#E5AE41"/>
<path d="M41.8857 41.2378C41.1808 41.1161 40.9401 43.5178 40.4707 44.0851C39.5779 45.1541 38.5269 45.5118 37.0751 45.8523L36.8166 45.92C36.0752 45.95 36.2267 46.3589 36.8737 46.4381C37.2237 46.4774 37.8858 46.2106 38.1927 46.0991C38.9875 45.8308 39.6306 45.3913 40.2158 44.9092C41.1927 44.1202 42.6393 42.5261 41.8857 41.2378Z" fill="#E5AE41"/>
<path d="M36.2196 47.2589L32.909 47.3009L33.4095 52.7073L36.7201 52.6652L36.2196 47.2589Z" fill="black"/>
<path opacity="0.5" d="M33.4411 47.9721L33.8541 52.4593L35.1697 52.6334L34.5771 48.5744L33.4411 47.9721Z" fill="#E49A32"/>
<path d="M34.6792 32.1062C31.3638 32.1377 28.3229 29.8908 27.9023 27.0988C27.4818 24.3068 29.838 22.0086 33.1534 21.977C36.4688 21.9455 39.5097 24.1923 39.9303 26.9843C40.3508 29.7764 37.9946 32.0746 34.6792 32.1062ZM33.3979 23.6003C31.1363 23.6218 29.543 25.1758 29.8299 27.0805C30.1168 28.9851 32.173 30.5044 34.4347 30.4829C36.6963 30.4614 38.2896 28.9073 38.0027 27.0027C37.7158 25.0981 35.6596 23.5787 33.3979 23.6003Z" fill="black"/>
<g opacity="0.5">
<path d="M34.687 31.5642C31.6799 31.5928 28.9292 29.5599 28.5484 27.0276C28.1677 24.4953 30.3001 22.4159 33.3071 22.3873C36.3141 22.3588 39.0649 24.3917 39.4456 26.924C39.8264 29.4563 37.694 31.5356 34.687 31.5642ZM33.3917 22.9501C30.7445 22.9752 28.859 24.8138 29.1942 27.0431C29.5294 29.2724 31.9617 31.0699 34.6089 31.0448C37.2561 31.0196 39.1416 29.181 38.8064 26.9518C38.4712 24.7225 36.0389 22.9249 33.3917 22.9501Z" fill="#E49A32"/>
</g>
<path d="M31.038 23.2711C30.7554 23.2309 30.4562 23.2555 30.2468 23.3867L29.9423 23.5619C29.5466 24.1898 28.893 24.5836 28.5842 25.2967C28.4312 25.664 28.3622 26.0949 28.3631 26.4822C28.3473 26.9341 28.5528 27.5344 28.9571 26.9709C29.3809 26.3643 29.1521 25.3985 29.5702 24.7489C29.8628 24.2941 31.2013 23.7427 31.038 23.2711Z" fill="#E5AE41"/>
<path d="M39.1783 27.4044C38.6728 27.3229 38.5697 29.0559 38.2356 29.4706C37.6106 30.2346 36.8921 30.5016 35.8588 30.7501L35.6597 30.817C35.1428 30.8438 35.2359 31.146 35.7125 31.2062C35.9523 31.2471 36.4197 31.0475 36.6419 30.9587C37.2132 30.7581 37.6399 30.4508 38.0608 30.1002C38.7583 29.487 39.7493 28.3513 39.1783 27.4044Z" fill="#E5AE41"/>
<path d="M36.0523 37.0577C36.1046 37.6109 35.4665 38.0876 34.6428 38.0979C33.8192 38.1082 33.0944 37.67 33.0401 37.0955L32.233 28.5635C32.1807 28.0103 32.8188 27.5336 33.6425 27.5233C34.4661 27.513 35.1909 27.9512 35.2452 28.5257L36.0523 37.0577Z" fill="black"/>
<path opacity="0.4" d="M34.9329 34.5027C34.9681 34.8854 34.6298 35.1877 34.1728 35.1936C33.7158 35.1994 33.3208 34.8852 33.2876 34.5237L32.752 28.6983C32.7169 28.3156 33.0551 28.0133 33.5121 28.0075C33.9692 28.0016 34.3641 28.3159 34.3973 28.6773L34.9329 34.5027Z" fill="#E49A32"/>
<path d="M33.7267 31.1605C33.5513 30.3763 33.8525 29.6282 33.679 28.8652C33.5678 28.8242 33.4548 28.7619 33.3258 28.7636L33.2828 28.7642C32.8109 29.2807 33.3652 30.4638 33.3791 31.1226C33.3888 31.4839 33.1056 33.1883 33.7506 33.1797C34.3311 33.172 33.7972 31.4784 33.7267 31.1605Z" fill="#E5AE41"/>
<path d="M34.181 19.3171C30.8656 19.3488 27.8243 17.102 27.4033 14.31C26.9822 11.518 29.338 9.2197 32.6534 9.18803C35.9687 9.15636 39.01 11.4031 39.4311 14.1951C39.8779 16.9869 37.4964 19.2855 34.181 19.3171ZM32.8982 10.8113C30.6365 10.8329 29.0435 12.387 29.3308 14.2916C29.618 16.1962 31.6745 17.7155 33.9362 17.6939C36.1978 17.6723 37.7908 16.1182 37.5036 14.2136C37.2163 12.3089 35.1598 10.7897 32.8982 10.8113Z" fill="black"/>
<g opacity="0.5">
<path d="M34.1873 18.776C31.1803 18.8046 28.4295 16.7717 28.0486 14.2394C27.6678 11.7071 29.8002 9.62772 32.8072 9.59913C35.8142 9.57054 38.565 11.6035 38.9459 14.1358C39.3267 16.6681 37.1943 18.7474 34.1873 18.776ZM32.8918 10.1619C30.2446 10.187 28.3591 12.0256 28.6944 14.2549C29.0297 16.4842 31.462 18.2817 34.1092 18.2566C36.7564 18.2314 38.6419 16.3928 38.3066 14.1635C37.9713 11.9342 35.539 10.1367 32.8918 10.1619Z" fill="#E49A32"/>
</g>
<path d="M30.5381 10.4821C30.2555 10.442 29.9563 10.4665 29.7468 10.5977L29.4424 10.7729C29.0467 11.4008 28.3931 11.7947 28.0843 12.5078C27.9313 12.875 27.8624 13.306 27.8633 13.6932C27.8475 14.1451 28.053 14.7454 28.4573 14.182C28.881 13.5753 28.6523 12.6096 29.0703 11.9599C29.3658 11.5267 30.7014 10.9538 30.5381 10.4821Z" fill="#E5AE41"/>
<path d="M38.6782 14.6156C38.1727 14.534 38.0695 16.267 37.7354 16.6817C37.1104 17.4457 36.3919 17.7127 35.3586 17.9612L35.1594 18.0282C34.6426 18.055 34.7356 18.3572 35.2123 18.4173C35.452 18.4582 35.9195 18.2587 36.1416 18.1699C36.713 17.9693 37.1397 17.6619 37.5606 17.3113C38.2581 16.6981 39.2491 15.5624 38.6782 14.6156Z" fill="#E5AE41"/>
<path d="M35.5519 24.2689C35.6042 24.8221 34.966 25.2987 34.1424 25.309C33.3187 25.3194 32.594 24.8811 32.5397 24.3066L31.7328 15.7746C31.6805 15.2214 32.3187 14.7447 33.1423 14.7344C33.966 14.7241 34.6907 15.1624 34.745 15.7368L35.5519 24.2689Z" fill="black"/>
<path opacity="0.4" d="M34.4326 21.7138C34.4677 22.0965 34.1295 22.3988 33.6724 22.4047C33.2154 22.4105 32.8205 22.0963 32.7872 21.7349L32.2519 15.9094C32.2167 15.5267 32.555 15.2244 33.012 15.2186C33.469 15.2127 33.864 15.527 33.8972 15.8884L34.4326 21.7138Z" fill="#E49A32"/>
<path d="M33.2265 18.3723C33.0511 17.5881 33.3524 16.8401 33.1788 16.0771C33.0677 16.0361 32.9547 15.9738 32.8257 15.9755L32.7827 15.9761C32.3107 16.4926 32.865 17.6756 32.8789 18.3345C32.8886 18.6957 32.6054 20.4001 33.2503 20.3915C33.8308 20.3838 33.2989 18.7115 33.2265 18.3723Z" fill="#E5AE41"/>
<path d="M243.883 42.3685C239.183 42.4173 234.982 39.3005 234.501 35.4525C234.017 31.5829 237.458 28.4086 242.132 28.3601C246.805 28.3116 251.033 31.4281 251.514 35.2761C251.995 39.1241 248.583 42.3198 243.883 42.3685ZM242.41 30.5867C239.233 30.6197 236.901 32.7868 237.228 35.4026C237.556 38.0184 240.422 40.1316 243.599 40.0986C246.776 40.0657 249.108 37.8986 248.781 35.2828C248.454 32.667 245.613 30.5535 242.41 30.5867Z" fill="black"/>
<g opacity="0.5">
<path d="M243.907 41.6115C239.654 41.6555 235.858 38.8376 235.423 35.3571C234.986 31.8549 238.098 28.9871 242.325 28.9434C246.579 28.8994 250.372 31.6957 250.809 35.1978C251.244 38.6783 248.134 41.5678 243.907 41.6115ZM242.417 29.6784C238.662 29.7172 235.956 32.2562 236.339 35.3259C236.725 38.4173 240.082 40.8719 243.81 40.8333C247.538 40.7947 250.271 38.2555 249.887 35.1857C249.504 32.116 246.145 29.6398 242.417 29.6784Z" fill="#E49A32"/>
</g>
<path d="M239.136 30.115C238.742 30.0765 238.301 30.0815 237.982 30.257L237.564 30.4767C236.983 31.3428 236.028 31.8909 235.564 32.8846C235.335 33.4029 235.216 33.9844 235.196 34.5218C235.16 35.1454 235.432 35.9803 236.021 35.1786C236.657 34.3333 236.383 33.0042 236.988 32.1163C237.421 31.5527 239.364 30.7785 239.136 30.115Z" fill="#E5AE41"/>
<path d="M250.415 35.8623C249.71 35.7406 249.469 38.1424 249 38.7096C248.107 39.7787 247.056 40.1364 245.604 40.4769L245.345 40.5447C244.604 40.5746 244.755 40.9836 245.402 41.0627C245.753 41.102 246.415 40.8352 246.722 40.7237C247.517 40.4554 248.16 40.0159 248.745 39.5338C249.748 38.7444 251.195 37.1503 250.415 35.8623Z" fill="#E5AE41"/>
<path d="M244.776 41.8827L241.466 41.9248L241.966 47.3311L245.277 47.2891L244.776 41.8827Z" fill="black"/>
<path opacity="0.5" d="M241.97 42.5963L242.408 47.0836L243.726 47.2576L243.108 43.1987L241.97 42.5963Z" fill="#E49A32"/>
<path d="M243.236 26.7301C239.92 26.7616 236.88 24.5147 236.459 21.7227C236.039 18.9307 238.395 16.6324 241.71 16.6009C245.026 16.5694 248.066 18.8163 248.487 21.6083C248.907 24.4003 246.551 26.6986 243.236 26.7301ZM241.955 18.2242C239.693 18.2457 238.1 19.7997 238.387 21.7044C238.673 23.609 240.73 25.1283 242.991 25.1068C245.253 25.0853 246.846 23.5313 246.559 21.6266C246.273 19.722 244.216 18.2027 241.955 18.2242Z" fill="black"/>
<g opacity="0.5">
<path d="M243.243 26.1882C240.236 26.2167 237.486 24.1838 237.105 21.6515C236.724 19.1192 238.857 17.0398 241.864 17.0113C244.871 16.9827 247.621 19.0157 248.002 21.548C248.357 24.0805 246.225 26.1599 243.243 26.1882ZM241.948 17.574C239.301 17.5991 237.415 19.4377 237.751 21.667C238.086 23.8963 240.518 25.6939 243.165 25.6687C245.812 25.6436 247.698 23.805 247.363 21.5757C247.028 19.3464 244.595 17.5489 241.948 17.574Z" fill="#E49A32"/>
</g>
<path d="M239.595 17.895C239.312 17.8548 239.013 17.8794 238.803 18.0106L238.499 18.1858C238.103 18.8137 237.45 19.2076 237.141 19.9206C236.988 20.2879 236.919 20.7188 236.92 21.1061C236.904 21.558 237.109 22.1583 237.514 21.5948C237.937 20.9882 237.709 20.0224 238.127 19.3728C238.394 18.9183 239.758 18.3666 239.595 17.895Z" fill="#E5AE41"/>
<path d="M247.735 22.0284C247.229 21.9469 247.126 23.6799 246.792 24.0945C246.167 24.8585 245.448 25.1255 244.415 25.374L244.216 25.441C243.699 25.4678 243.792 25.77 244.269 25.8301C244.509 25.871 244.976 25.6715 245.198 25.5827C245.77 25.3821 246.196 25.0747 246.617 24.7241C247.315 24.111 248.306 22.9753 247.735 22.0284Z" fill="#E5AE41"/>
<path d="M244.581 31.6824C244.633 32.2356 243.995 32.7123 243.171 32.7226C242.347 32.7329 241.623 32.2947 241.568 31.7202L240.761 23.1881C240.709 22.6349 241.347 22.1583 242.171 22.148C242.995 22.1376 243.719 22.5759 243.774 23.1504L244.581 31.6824Z" fill="black"/>
<path opacity="0.4" d="M243.489 29.1266C243.524 29.5093 243.186 29.8116 242.729 29.8175C242.272 29.8233 241.877 29.5091 241.844 29.1476L241.308 23.3222C241.273 22.9395 241.611 22.6372 242.068 22.6314C242.525 22.6255 242.92 22.9398 242.954 23.3012L243.489 29.1266Z" fill="#E49A32"/>
<path d="M242.256 25.7851C242.08 25.0009 242.382 24.2528 242.208 23.4898C242.097 23.4488 241.984 23.3865 241.854 23.3882L241.811 23.3888C241.339 23.9053 241.894 25.0884 241.908 25.7472C241.917 26.1085 241.634 27.813 242.28 27.8044C242.883 27.7963 242.327 26.103 242.256 25.7851Z" fill="#E5AE41"/>
<path d="M242.738 13.9413C239.422 13.9728 236.381 11.7259 235.96 8.9339C235.539 6.14191 237.895 3.84369 241.21 3.81216C244.526 3.78063 247.567 6.02751 247.988 8.81951C248.409 11.6115 246.053 13.9097 242.738 13.9413ZM241.455 5.43541C239.193 5.45692 237.6 7.01095 237.888 8.91557C238.175 10.8202 240.231 12.3395 242.493 12.318C244.755 12.2965 246.348 10.7425 246.06 8.83784C245.773 6.93323 243.717 5.4139 241.455 5.43541Z" fill="black"/>
<g opacity="0.5">
<path d="M242.744 13.3999C239.737 13.4285 236.986 11.3956 236.605 8.86325C236.224 6.33095 238.357 4.25162 241.364 4.22306C244.371 4.19449 247.122 6.22744 247.502 8.75974C247.857 11.2923 245.725 13.3716 242.744 13.3999ZM241.449 4.78579C238.801 4.81093 236.916 6.6495 237.251 8.87879C237.586 11.1081 240.018 12.9056 242.665 12.8805C245.313 12.8553 247.198 11.0168 246.863 8.78749C246.528 6.5582 244.096 4.76064 241.449 4.78579Z" fill="#E49A32"/>
</g>
<path d="M239.095 5.10606C238.812 5.0659 238.513 5.09045 238.304 5.22166L237.999 5.39685C237.603 6.02474 236.95 6.41861 236.641 7.13167C236.488 7.49894 236.419 7.9299 236.42 8.31712C236.404 8.76905 236.61 9.36933 237.014 8.80589C237.438 8.19923 237.209 7.23347 237.627 6.58384C237.897 6.15084 239.258 5.57769 239.095 5.10606Z" fill="#E5AE41"/>
<path d="M247.235 9.23944C246.729 9.15791 246.626 10.8909 246.292 11.3056C245.667 12.0696 244.948 12.3366 243.915 12.5851L243.716 12.652C243.199 12.6789 243.292 12.981 243.769 13.0412C244.009 13.0821 244.476 12.8826 244.698 12.7937C245.27 12.5932 245.696 12.2858 246.117 11.9352C246.815 11.322 247.806 10.1863 247.235 9.23944Z" fill="#E5AE41"/>
<path d="M244.081 18.8935C244.133 19.4467 243.495 19.9233 242.671 19.9336C241.847 19.9439 241.123 19.5057 241.068 18.9312L240.262 10.3992C240.209 9.84596 240.847 9.36932 241.671 9.35899C242.495 9.34867 243.219 9.78693 243.274 10.3614L244.081 18.8935Z" fill="black"/>
<path opacity="0.4" d="M242.989 16.3377C243.024 16.7204 242.686 17.0227 242.229 17.0285C241.772 17.0344 241.377 16.7201 241.344 16.3587L240.808 10.5333C240.773 10.1506 241.112 9.84826 241.569 9.84242C242.026 9.83658 242.421 10.1508 242.454 10.5123L242.989 16.3377Z" fill="#E49A32"/>
<path d="M241.756 12.9969C241.581 12.2127 241.882 11.4646 241.708 10.7016C241.597 10.6606 241.484 10.5983 241.355 10.6L241.312 10.6006C240.839 11.1171 241.394 12.3002 241.408 12.959C241.418 13.3203 241.134 15.0248 241.78 15.0162C242.383 15.0082 241.829 13.3361 241.756 12.9969Z" fill="#E5AE41"/>
<path d="M232.581 46.9547C224.507 46.9317 216.547 47.3042 208.526 47.6075C189.913 48.3215 171.425 49.1972 152.613 49.1432C138.905 49.1085 125.414 49.0006 111.72 49.5264C99.2565 50.0109 86.5365 51.1767 73.8541 50.6366C63.3645 50.1814 52.3488 50.1777 41.9514 50.5622C37.8989 50.7145 30.5742 49.8629 30.3792 53.9074C30.1305 59.4478 35.3716 57.2458 38.5221 59.9568L39.1476 60.4384C32.1011 59.5594 34.8422 64.6126 35.0082 67.8809C35.1165 70.0286 34.6482 71.6007 36.6991 72.7624C38.5136 73.764 41.2515 73.2804 43.4234 73.4591C49.2582 73.8884 55.0489 75.2061 60.9761 75.377C68.1686 75.5997 75.0771 73.21 82.2052 72.5926C98.9969 71.1574 115.585 72.9258 132.461 72.9612C155.478 73.0244 178.408 71.5936 201.317 71.705C210.71 71.7556 219.691 69.7096 228.914 70.0897C232.653 70.2457 236.98 70.7436 240.661 70.1295C242.876 69.7702 243.549 69.41 243.215 67.2422C242.988 65.7503 242.463 64.3796 240.112 64.7875C239.826 64.3478 239.643 63.4159 239.717 62.9243C243.821 61.9769 244.78 62.0565 243.654 58.3349C242.909 55.916 243.715 53.2644 242.637 50.8971C241.464 50.9609 240.173 50.9329 239.29 50.385C240.52 49.2458 243.044 48.5317 239.779 47.2474C237.982 46.4792 234.628 46.9717 232.581 46.9547Z" fill="#542200" fill-opacity="0.7"/>
<path d="M237.015 62.8678C231.728 62.8372 226.426 62.6139 221.212 62.4444C217.351 62.3097 213.668 61.9243 209.774 61.7349C203.481 61.4164 196.499 61.6592 190.143 61.6171C175.518 61.5341 160.171 61.5722 145.714 60.7153C134.813 60.0529 125.802 57.9569 115.042 57.2923C103.152 56.562 89.1979 56.7996 77.6897 57.7993C67.9685 58.6344 63.1147 61.7931 53.7407 62.7607C50.0585 63.1468 45.8703 63.1547 42.0615 63.3498C39.6245 63.4691 36.6301 63.6519 34.0302 63.4706C34.0471 64.0765 34.1222 64.709 34.2274 65.3687C36.2814 65.3929 38.2552 65.4734 39.0716 65.4886C45.5028 65.7776 51.7573 65.9589 58.1736 65.6695C68.7638 65.1795 76.2573 63.4963 84.4447 61.6925C95.8987 59.2059 109.227 59.9971 122.147 60.6017C125.985 60.7919 129.662 61.0947 133.345 61.4801C136.093 61.7693 138.942 62.2774 141.781 62.2623C144.029 62.256 146.342 61.9732 148.757 61.9369C151.539 61.9226 154.195 62.103 156.927 62.1721C163.516 62.3209 169.995 62.1132 176.451 61.9885C186.079 61.7885 195.856 62.0821 205.253 62.9325C213.459 63.6631 220.972 64.1286 229.475 64.3037C232.993 64.361 236.566 64.3898 240.112 64.4467C240.056 64.0618 240.029 63.7041 240.037 63.4284C240.78 63.2244 241.388 63.0775 241.937 62.9039C240.279 62.9013 238.59 62.8716 237.015 62.8678Z" fill="#A55508"/>
<path d="M40.9759 69.4063C48.5517 69.2095 56.3262 69.0373 63.8699 68.7858C74.8636 68.4273 85.1975 66.7552 96.3515 67.8004C103.656 68.4899 111.022 69.2613 118.349 69.8678C123.751 70.3103 129.251 69.0419 133.902 68.448C136.074 68.1672 137.668 67.6745 139.898 67.4203C142.881 67.0721 145.972 67.0531 149.143 66.9778C152.988 66.8923 156.68 66.6437 160.618 66.6672C164.331 66.694 167.891 66.9436 171.572 66.9158C182.532 66.861 193.367 66.2567 204.456 66.4206C214.615 66.5708 224.815 66.5 235.053 66.5663C236.768 66.5681 240.11 66.5178 243.317 66.5522C243.154 65.8654 242.882 65.2353 242.432 64.8561C241.7 64.8396 241.052 64.8217 240.547 64.8293C235.119 64.8008 229.611 64.8286 224.229 64.6615C213.379 64.3011 203.241 62.9373 192.495 62.465C185.924 62.178 179.292 62.2227 172.689 62.267C166.872 62.2994 160.447 62.0929 154.765 62.4266C148.944 62.79 144.925 63.1814 138.889 62.5279C128.487 61.3887 119.285 60.5071 108.26 60.4526C100.273 60.4074 95.1769 61.0632 88.9868 62.5074C82.2692 64.0422 74.9267 64.7318 66.5707 65.023C55.8037 65.4058 45.1369 65.6215 34.3673 65.5907C34.5088 66.3606 34.6222 67.1309 34.6452 67.8198C34.684 68.3431 34.6626 68.8121 34.6692 69.2807C36.8897 69.2748 39.5156 69.4283 40.9759 69.4063ZM127.046 63.9469C129.11 64.1088 134.348 64.6089 134.02 65.4961C133.411 67.132 117.952 67.1718 118.356 65.0428L119.228 64.6712C121.508 63.9476 123.736 63.6659 127.046 63.9469ZM100.278 65.7837C96.0466 64.8273 98.7418 62.8843 103.445 62.6205C108.036 62.3583 113.824 62.6847 118.547 62.6963C120.178 62.6993 123.032 62.5185 122.751 63.2672C119.435 63.6755 98.4748 62.6953 103.954 65.3148C107.627 67.0792 121.128 67.5376 126.951 67.5877L127.555 67.7716C124.12 68.4575 116.641 67.6878 113.05 67.4111C108.923 67.1148 103.796 66.5854 100.278 65.7837Z" fill="#A55508"/>
<path d="M214.736 66.246C195.059 66.4109 175.308 66.7223 155.644 66.6836C148.753 66.676 142.002 66.6662 135.625 67.5803C128.245 68.6265 125.01 69.8108 116.229 69.339C107.732 68.8918 99.6776 67.1591 91.1243 67.1196C82.597 67.0506 73.7455 67.5679 65.4257 68.0477C54.6678 68.6532 44.8645 68.8368 34.274 68.626C34.3422 69.9907 34.6729 71.0897 35.9726 71.97C37.8047 73.2196 40.5472 72.6243 42.729 72.8514C48.5898 73.3983 54.4161 75.0499 60.3668 75.2757C67.5879 75.5687 74.4953 72.6121 81.6427 71.8602C98.4798 70.1128 115.148 72.349 132.086 72.4307C155.187 72.5605 178.186 70.8322 201.178 71.0218C210.607 71.1056 219.598 68.5811 228.858 69.0744C232.614 69.2767 236.961 69.9056 240.649 69.1501C242.645 68.7408 243.405 68.3511 243.26 66.2903C233.996 66.5525 224.042 66.1864 214.736 66.246Z" fill="#A55508"/>
<path d="M241.314 51.136C232.395 50.9994 223.763 51.3134 215.092 51.8422C199.317 52.8231 184.436 54.46 168.257 54.9384C157.911 55.2509 147.507 55.1628 137.118 54.9139C114.337 54.3117 92.8487 51.4961 70.9687 54.2259C57.9116 55.836 44.2426 55.6888 30.4114 55.6243C31.4146 59.1956 35.6855 57.7145 38.418 60.3773L39.0503 60.93C35.8957 60.4679 34.6998 61.3686 34.391 62.845C34.786 62.8659 35.1811 62.8869 35.548 62.9083C38.4255 63.0534 41.2989 63.145 44.3306 63.1005C51.603 63.0205 54.6888 61.4765 59.6135 60.0929C73.3975 56.2241 93.8427 55.6831 112.136 56.4047C120.733 56.7334 128.634 57.5273 136.637 58.5605C144.755 59.6189 153.746 61.0658 162.577 61.1502C167.92 61.2056 172.906 60.6239 178.216 60.5995C184.732 60.5573 191.369 60.6204 197.848 60.8197C207.563 61.0785 217.042 61.5548 226.731 61.8407C231.772 61.9808 236.865 62.0666 241.904 62.1799C242.383 62.1997 243.34 62.2124 244.495 62.2489C244.752 61.5761 244.621 60.5879 244.157 58.9355C243.462 56.4568 244.014 53.7458 243.317 51.2404C242.441 51.173 241.709 51.157 241.314 51.136Z" fill="#A55508"/>
<path d="M233.294 46.9953C225.19 46.9485 217.205 47.3959 209.158 47.7567C190.484 48.6067 171.938 49.659 153.056 49.5492C139.297 49.4751 125.756 49.31 112.017 49.936C99.5126 50.5133 86.7586 51.9408 74.0236 51.2377C63.4903 50.6456 52.4341 50.6163 42.0027 51.0732C37.9369 51.2543 30.5759 50.1742 30.4247 55.2254C30.4115 55.8385 30.4223 56.3928 30.5113 56.8583C32.1148 56.8621 33.8068 56.9229 34.6497 56.9095C39.5686 56.8609 44.4191 56.6382 49.2133 56.4164C56.5863 56.0663 62.3434 55.5374 69.4266 54.6665C75.033 53.9941 80.4708 53.3244 86.5198 53.3454C92.1192 53.3735 98.2969 53.626 103.993 53.8277C110.959 54.0968 117.675 54.3991 124.589 54.7274C127.694 54.8826 130.619 55.2741 133.72 55.3709C137.495 55.4571 141.193 55.2526 144.971 55.368C154.325 55.5993 163.612 56.0652 172.761 55.3659C181.546 54.7016 189.704 53.1133 198.534 52.6817C207.336 52.2506 216.531 52.2218 225.335 51.8198C229.905 51.6016 234.341 51.0936 238.985 51.1369C239.323 51.1315 239.746 51.154 240.196 51.1469C241.45 49.7846 243.753 48.931 240.545 47.3183C238.71 46.4135 235.349 47.0212 233.294 46.9953Z" fill="#A55508"/>
<path d="M42.702 52.6847L46.2002 52.4089L52.0106 119.203L48.0923 119.996L42.702 52.6847Z" fill="black"/>
<path opacity="0.6" d="M227.954 47.1395L231.101 46.9109L235.928 114.003L232.138 114.795L227.954 47.1395Z" fill="black"/>
<path d="M13.5395 45.5929C11.4785 46.0489 12.5036 54.715 15.319 58.2154C16.842 60.1132 18.7034 61.7076 20.4359 62.9839C18.4864 63.8649 16.352 65.0258 14.3031 66.6121C6.83447 72.3283 7.81129 85.6021 7.94547 86.9652C8.09441 88.84 9.44611 101.618 17.6104 106.94C19.9323 108.464 22.2461 109.561 24.331 110.385C22.805 111.708 21.2009 113.351 20.0084 115.288C17.7548 118.861 18.1592 127.536 20.2879 127.932C21.1548 128.09 22.3606 125.343 26.9261 124.147C30.1704 123.269 33.9289 123.322 33.9289 123.322L48.7737 123.11L42.7226 49.5482L27.8812 49.803C27.8812 49.803 24.1396 49.9631 20.765 49.2008C16.0443 48.1165 14.4053 45.4099 13.5395 45.5929Z" fill="#A55508"/>
<path d="M26.0702 118.671C22.7809 118.887 19.6104 118.856 16.5481 118.456C16.4088 119.437 16.3298 120.467 16.3067 121.496C16.8456 121.244 17.4166 121.041 17.9919 120.886C22.6653 119.819 29.3503 120.293 34.38 120.104C38.9917 119.944 43.4541 120.326 48.0442 120.24C48.2402 120.237 48.5202 120.234 48.8303 120.254L48.7668 119.52C46.1542 119.457 43.7381 119.073 41.0996 119.034C36.1048 118.978 30.9751 118.337 26.0702 118.671Z" fill="#020200"/>
<path d="M46.9716 108.777C44.681 109.231 42.6631 109.928 40.8477 110.713C38.5796 111.704 37.2836 113.288 34.9453 114.124C32.9316 114.866 29.3292 114.956 27.0748 114.313C25.1061 113.755 23.9236 112.695 21.8225 112.207C21.5111 112.143 21.1997 112.08 20.8882 112.017C20.2554 112.674 19.6565 113.398 19.1174 114.167C19.2283 114.165 19.3691 114.186 19.4801 114.185C21.667 114.403 23.2918 115.144 25.2992 115.522C28.0724 116.069 33.1954 116.497 36.0026 115.925C37.8279 115.543 38.2262 114.754 39.124 113.959C40.4342 112.823 42.1134 111.772 44.2873 110.96C45.3892 110.566 46.7171 110.213 48.1367 109.949L48.0091 108.584C47.5992 108.657 47.2427 108.706 46.9716 108.777Z" fill="#020200"/>
<path d="M47.7581 95.2452L47.6075 93.4602C45.0248 93.4451 42.3966 93.5564 39.8245 93.6669C35.6009 93.8251 31.8658 93.1209 27.6243 93.7323C25.2955 94.0661 23.1366 94.7499 20.6808 94.9091C17.5567 95.1279 15.27 94.6304 12.3667 94.1414C11.3127 93.9544 9.36826 93.8551 7.38728 93.6555C7.55031 94.2573 7.71334 94.8592 7.93453 95.4854C8.67172 95.576 9.383 95.6922 10.0404 95.8342C13.7776 96.5636 17.1446 96.8953 21.0604 96.4141C25.1702 95.9051 28.815 94.8739 33.0687 94.7405C37.2103 94.6086 41.2844 95.0061 45.3674 95.1771C46.1542 95.1915 46.9691 95.2056 47.7581 95.2452Z" fill="#020200"/>
<path d="M13.368 51.8422C19.4381 52.5518 25.1562 54.2541 30.9356 55.1247C35.56 55.83 40.0294 56.0657 44.8021 56.2751C45.2484 56.2919 45.7246 56.3308 46.1709 56.3477L45.9512 53.992C45.112 53.9352 44.3838 53.877 43.9097 53.8605C34.9348 53.2998 28.3987 50.5745 19.8948 49.4014C17.6146 49.0933 15.306 49.0774 12.9912 48.9943C13.0471 49.8921 13.1648 50.8564 13.368 51.8422Z" fill="#020200"/>
<path d="M30.8559 98.9663C28.0603 99.1844 25.4576 99.3771 23.4701 100.497C22.1709 101.22 22.2912 102.222 20.6689 102.768C18.8022 103.384 14.9838 103.091 11.7159 102.722C12.2566 103.445 12.8508 104.144 13.4965 104.797C15.3947 104.522 17.3034 104.361 18.7129 104.229C21.53 103.942 24.1201 104.822 26.8957 104.992C29.6434 105.162 31.6078 105 34.0655 104.444C37.3417 103.696 40.3222 103.065 44.0534 103.017C45.4457 102.999 46.7649 103.097 48.0626 103.263L47.9428 101.964C46.1481 101.85 44.0744 102.036 42.2645 102.059C37.8093 102.116 34.4642 103.025 29.9244 102.467C28.8537 102.344 25.2129 102.162 25.4477 101.384C25.6673 100.743 30.0331 100.322 31.1086 100.195C36.2179 99.6734 42.1804 99.9396 47.4431 99.8726C47.5266 99.8716 47.6102 99.8705 47.6937 99.8695L47.5235 98.0245C46.8252 98.0105 46.1012 98.0198 45.403 98.0058C40.4723 98.0458 35.7293 98.6079 30.8559 98.9663Z" fill="#020200"/>
<path d="M34.9131 64.1099C32.1527 63.9091 24.7171 64.3138 18.2028 64.0673C17.1655 64.6726 16.1066 65.3492 15.0583 66.1441C17.047 66.1655 19.0981 66.2572 21.0547 66.2317C27.1201 66.1526 32.8069 66.2205 38.863 66.6624C41.116 66.8224 43.9618 67.3535 46.6684 67.5786L46.455 65.1905C42.594 64.8857 38.858 64.4136 34.9131 64.1099Z" fill="#020200"/>
<path d="M42.2473 58.704C33.5813 58.2623 24.6639 56.9028 16.0501 56.1151C15.5161 56.0759 14.98 56.0137 14.4182 55.9748C14.8328 56.8445 15.2668 57.6218 15.7977 58.2367C15.8918 58.3506 15.986 58.4645 16.0823 58.6015C26.0255 58.359 41.4246 60.6947 44.7809 60.7669C45.0318 60.7637 45.5915 60.7796 46.3465 60.7929L46.1696 58.861C44.8529 58.8088 43.5382 58.7796 42.2473 58.704Z" fill="#020200"/>
<path d="M43.4905 68.3683C39.9013 68.0263 36.7014 67.9714 33.0341 68.0201C29.4508 68.0678 26.1886 67.9406 22.6379 67.7198C19.5093 67.5178 16.0744 67.6609 12.9395 67.3859C12.3227 68.0275 11.7661 68.717 11.2697 69.4544C13.6768 69.7391 15.9676 69.9766 18.5949 69.8929C21.5 69.7812 24.3042 69.476 27.2135 69.4129C33.2863 69.3079 38.665 69.6018 44.6053 70.2292C45.2556 70.2937 45.9898 70.357 46.7478 70.3713L46.5869 68.522C45.5468 68.4871 44.5068 68.4522 43.4905 68.3683Z" fill="#020200"/>
<path d="M36.252 74.9454C30.2832 73.8743 25.0706 72.8168 18.6313 73.0408C15.3139 73.154 11.7493 73.3173 8.4915 73.7814C8.07898 75.0992 7.75026 76.4159 7.53325 77.7311C9.89147 76.9038 12.3335 76.0753 15.0606 75.6181C23.9255 74.0737 33.0058 76.1592 41.617 77.3836C42.6372 77.5345 44.8496 77.8808 47.1009 78.0392L46.9131 75.9558C43.3385 75.6974 39.7186 75.5567 36.252 74.9454Z" fill="#020200"/>
<path d="M43.7737 80.4416C39.7059 81.6011 35.4771 81.926 30.8653 82.3235C23.4086 82.9607 16.4177 83.818 10.06 85.7979C8.92372 86.1515 7.82992 86.6628 6.69573 87.039L6.69782 87.0615C6.7251 87.3552 6.77758 87.9198 6.90034 88.6418C7.3111 88.5688 7.69613 88.5186 7.96788 88.4474C10.2468 87.808 12.117 87.2642 14.7673 87.0272C19.7085 86.5802 23.417 85.4478 28.2538 84.7761C28.748 84.702 39.8496 83.7473 46.9549 82.3232L46.6863 79.4324C45.5542 79.8311 44.4798 80.2517 43.7737 80.4416Z" fill="#020200"/>
<path d="M47.2561 86.9765L47.0851 85.0858C46.2711 85.0496 45.4355 85.0838 44.5504 85.1888C41.2033 85.5826 37.5748 85.9568 34.3864 86.5589C29.1911 87.5375 23.4846 87.1908 18.3516 88.2387C15.2769 88.8627 12.7597 90.0871 9.36783 90.2946C8.81147 90.3252 7.8642 90.3608 6.88054 90.3035C6.93802 90.6299 6.99548 90.9563 7.08088 91.2824C10.1203 91.1963 13.5655 91.2685 15.0586 91.0856C20.9989 90.3077 24.6623 88.157 30.8855 87.7259C35.4718 87.4329 39.9769 86.8604 44.6745 86.8697C45.293 86.9085 46.2187 86.9432 47.2561 86.9765Z" fill="#020200"/>
<path opacity="0.5" d="M42.8131 49.5207L38.5322 49.6038C37.5508 52.3878 38.3202 56.0202 39.3598 58.5408C41.5339 63.8149 40.6638 68.3445 41.0058 73.6877C41.3411 78.9457 41.7357 84.3093 43.0552 89.4253C44.1279 93.6712 43.8612 98.0856 44.5377 102.486C45.4834 108.694 46.5517 115.817 44.4427 121.472C42.8717 121.943 40.5279 121.018 38.6094 120.96C36.2829 120.908 34.1616 121.195 32.0265 121.63C28.511 122.363 23.9963 123.046 20.8484 124.561C20.1596 124.891 19.661 125.367 19.3696 125.883C19.6603 126.986 20.1265 127.725 20.6973 127.845C21.5519 128.003 22.7405 125.259 27.2407 124.064C30.4386 123.187 34.1432 123.24 34.1432 123.24L48.7755 123.029L42.8131 49.5207Z" fill="black"/>
<path opacity="0.2" d="M32.9836 71.0495C33.4606 68.6778 34.8627 59.2407 28.003 60.469C27.073 60.6316 26.3477 61.132 26.0005 61.904L25.3311 62.4676C22.6233 66.9382 17.6561 69.8861 16.0405 74.6392C14.5886 78.8785 14.3352 83.7823 15.3326 88.3911C16.1379 92.1718 18.6229 98.2078 21.2223 101.473C22.8311 103.473 25.6912 104.859 26.9791 106.993C28.2333 109.02 26.4125 111.475 27.5382 113.163C30.8882 118.206 32.0412 105.258 31.7353 103.302C30.7724 97.1801 27.244 91.1591 27.4606 84.8071C27.5789 79.4792 31.9971 76.0278 32.9836 71.0495Z" fill="#FFDC78"/>
<path d="M258.104 39.5179C260.231 39.8928 260.635 48.5678 258.383 52.1619C257.165 54.0989 255.587 55.7424 254.06 57.0653C256.144 57.8674 258.459 58.986 260.78 60.4885C269.163 65.9569 270.347 79.2278 270.453 80.57C270.602 82.4448 271.359 95.2313 264.085 100.795C262.011 102.382 259.904 103.564 257.954 104.445C259.687 105.721 261.548 107.316 263.07 109.192C265.885 112.692 266.91 121.359 264.849 121.815C264.009 121.997 262.346 119.312 257.627 118.249C254.252 117.487 250.511 117.647 250.511 117.647L235.669 117.902L229.617 44.34L244.462 44.1279C244.462 44.1279 248.221 44.1808 251.465 43.3027C256.031 42.107 257.237 39.3597 258.104 39.5179Z" fill="#A55508"/>
<path d="M254.942 112.956C258.259 113.059 261.417 112.943 264.401 112.438C264.709 113.413 264.994 114.438 265.195 115.465C264.614 115.227 264.009 115.039 263.41 114.925C258.565 114.01 251.978 114.661 246.929 114.631C242.301 114.594 237.917 115.118 233.352 115.179C233.156 115.182 232.876 115.186 232.571 115.214L232.507 114.48C235.1 114.323 237.445 113.875 240.07 113.767C244.986 113.554 249.993 112.777 254.942 112.956Z" fill="#020200"/>
<path d="M232.961 103.707C235.331 104.103 237.501 104.725 239.458 105.462C241.907 106.394 243.522 107.92 246.011 108.695C248.186 109.384 251.768 109.362 253.897 108.663C255.755 108.034 256.71 106.969 258.741 106.406C259.04 106.335 259.339 106.264 259.638 106.193C260.392 106.833 261.125 107.541 261.834 108.294C261.723 108.295 261.587 108.319 261.478 108.343C259.337 108.616 257.882 109.396 255.924 109.847C253.26 110.463 248.23 111.041 245.323 110.54C243.43 110.206 242.885 109.429 241.813 108.658C240.293 107.557 238.421 106.55 236.075 105.818C234.902 105.452 233.513 105.156 232.045 104.906L231.918 103.541C232.312 103.603 232.652 103.666 232.961 103.707Z" fill="#020200"/>
<path d="M231.443 90.1236L231.293 88.341C233.865 88.2306 236.508 88.2952 239.09 88.3104C243.331 88.3532 246.936 87.525 251.271 88.019C253.65 88.2883 255.945 88.8855 258.394 88.9779C261.546 89.0858 263.743 88.5281 266.558 87.9619C267.578 87.747 269.499 87.57 271.441 87.3174C271.38 87.9215 271.319 88.5256 271.232 89.1551C270.512 89.2655 269.822 89.4006 269.19 89.56C265.584 90.3882 262.283 90.8353 258.325 90.4869C254.142 90.1165 250.331 89.1881 246.039 89.1962C241.887 89.2024 237.89 89.7092 233.847 90.0155C233.062 90.0262 232.252 90.0624 231.443 90.1236Z" fill="#020200"/>
<path d="M262.003 45.857C256.111 46.739 250.697 48.58 245.099 49.6379C240.62 50.4797 236.208 50.8494 231.487 51.1782C231.045 51.2062 230.577 51.257 230.135 51.285L229.915 48.9316C230.742 48.8539 231.457 48.7775 231.925 48.7267C240.77 47.9197 246.78 45.0166 255.011 43.5889C257.226 43.202 259.525 43.1281 261.819 42.987C261.93 43.8832 261.995 44.8697 262.003 45.857Z" fill="#020200"/>
<path d="M248.335 93.3648C251.162 93.4886 253.797 93.6376 255.984 94.6822C257.414 95.3713 257.478 96.3745 259.226 96.8771C261.202 97.4452 264.955 97.0324 268.148 96.581C267.742 97.3163 267.278 98.0296 266.754 98.698C264.811 98.4946 262.877 98.3823 261.444 98.2636C258.583 98.0719 256.189 99.0151 253.451 99.2553C250.741 99.4952 248.753 99.4064 246.198 98.9141C242.791 98.2501 239.703 97.7189 235.944 97.7668C234.552 97.7845 233.255 97.938 231.989 98.1138L231.869 96.8147C233.639 96.6552 235.74 96.7654 237.55 96.7423C242.004 96.6628 245.509 97.4853 249.933 96.7901C250.977 96.617 254.578 96.3658 254.2 95.5948C253.863 94.9602 249.429 94.6515 248.307 94.5746C243.115 94.2071 237.217 94.6473 231.956 94.7371C231.873 94.7382 231.789 94.7392 231.706 94.7403L231.536 92.8942C232.23 92.8625 232.952 92.8305 233.648 92.8216C238.545 92.7136 243.409 93.1537 248.335 93.3648Z" fill="#020200"/>
<path d="M241.449 58.7437C244.165 58.4486 251.652 58.6346 258.106 58.22C259.249 58.7956 260.426 59.4415 261.639 60.1815C259.659 60.2545 257.632 60.4226 255.676 60.4481C249.613 60.5506 243.953 60.7659 237.993 61.3867C235.776 61.6281 233.032 62.2306 230.374 62.5486L230.161 60.166C233.956 59.7387 237.596 59.1481 241.449 58.7437Z" fill="#020200"/>
<path d="M233.922 53.5432C242.483 52.8591 251.125 51.2314 259.543 50.2043C260.066 50.1287 260.591 50.076 261.145 50.0229C260.918 50.8993 260.599 51.685 260.212 52.3335C260.139 52.4494 260.066 52.5653 259.995 52.7041C250.035 52.7395 235.109 55.5279 231.774 55.6855C231.523 55.6887 230.968 55.7188 230.217 55.7514L230.04 53.8227C231.314 53.7145 232.62 53.6518 233.922 53.5432Z" fill="#020200"/>
<path d="M233.383 63.2045C236.902 62.7451 240.086 62.63 243.751 62.5571C247.332 62.4853 250.564 62.2725 254.065 61.9347C257.151 61.651 260.6 61.6781 263.678 61.2973C264.404 61.919 265.08 62.5899 265.703 63.3101C263.351 63.6569 261.109 63.978 258.474 63.9644C255.557 63.9302 252.708 63.7252 249.795 63.7396C243.721 63.8201 238.407 64.2548 232.592 65.0603C231.955 65.1416 231.233 65.224 230.48 65.2583L230.319 63.4151C231.352 63.3771 232.384 63.3149 233.383 63.2045Z" fill="#020200"/>
<path d="M241.153 69.4935C246.912 68.2493 251.921 67.0616 258.381 67.0717C261.708 67.0755 265.293 67.1461 268.627 67.5241C269.303 68.8254 269.84 70.1285 270.322 71.4324C267.792 70.6697 265.237 69.9307 262.407 69.5462C253.288 68.2605 244.608 70.5952 236.27 72.0832C235.28 72.2598 233.135 72.6618 230.92 72.901L230.733 70.8214C234.222 70.4487 237.807 70.2152 241.153 69.4935Z" fill="#020200"/>
<path d="M233.788 75.1745C238.06 76.2066 242.34 76.4239 247.041 76.6812C254.597 77.1059 261.758 77.762 268.467 79.5553C269.666 79.8795 270.851 80.3398 272.054 80.7092L272.056 80.7318C272.084 81.0257 272.136 81.5908 272.148 82.3148C271.724 82.2523 271.303 82.2124 271.046 82.1477C268.656 81.5896 266.689 81.0941 263.972 80.9248C258.961 80.6262 255.051 79.5895 250.102 79.0638C249.595 79.0024 238.345 78.3755 230.991 77.1335L230.722 74.2402C231.898 74.61 233.02 75.0032 233.788 75.1745Z" fill="#020200"/>
<path d="M231.116 81.8269L230.945 79.9321C231.751 79.8749 232.591 79.8874 233.493 79.9694C236.904 80.2766 240.59 80.5333 243.908 81.0525C249.269 81.8964 254.926 81.3783 260.206 82.2467C263.384 82.7677 266.117 83.9267 269.565 84.0226C270.126 84.0387 271.075 84.0264 272.049 83.967C272.05 84.2949 272.052 84.6227 272.026 84.9509C268.977 84.9435 265.554 85.1283 264.032 84.9841C257.966 84.3834 253.894 82.3284 247.638 82.1049C243.009 81.9306 238.412 81.4983 233.729 81.6525C233.06 81.6846 232.143 81.7433 231.116 81.8269Z" fill="#020200"/>
<path opacity="0.2" d="M229.467 44.4575L233.753 44.3957C235.195 47.145 235.021 50.7912 234.379 53.3574C233.06 58.6822 234.664 63.1764 235.185 68.5172C235.699 73.7729 236.17 79.1357 235.705 84.2777C235.326 88.5661 236.308 92.9414 236.347 97.3516C236.401 103.573 236.5 110.71 239.518 116.291C241.16 116.715 243.354 115.703 245.261 115.591C247.574 115.451 249.737 115.675 251.937 116.048C255.561 116.657 260.176 117.208 263.582 118.629C264.347 118.938 264.894 119.399 265.29 119.883C265.172 120.993 264.848 121.743 264.271 121.879C263.443 122.062 261.802 119.379 257.147 118.317C253.818 117.556 250.127 117.715 250.127 117.715L235.486 117.969L229.467 44.4575Z" fill="#FFDC78"/>
<path opacity="0.2" d="M240.235 62.2554C239.388 59.9027 236.463 50.5491 243.5 51.5341C244.454 51.6695 245.256 52.1479 245.749 52.9078L246.505 53.4508C249.931 57.8116 255.349 60.5884 257.756 65.2835C259.894 69.4711 260.939 74.3564 260.689 78.9833C260.477 82.7788 258.992 88.8937 256.933 92.2258C255.665 94.2681 253.028 95.755 252.076 97.9206C251.168 100 253.368 102.376 252.534 104.093C250.003 109.221 246.777 96.3353 246.751 94.3755C246.73 88.2398 249.258 82.1099 248.023 75.7786C246.972 70.4887 242.023 67.1938 240.235 62.2554Z" fill="#FFDC78"/>
<path opacity="0.5" d="M260.75 60.4983C258.424 58.9742 256.106 57.8767 254.018 57.0745C255.547 55.7514 257.155 54.1073 258.35 52.1703C259.868 49.7381 260.188 44.9552 259.54 42.0206C258.44 43.8495 258.364 47.4557 258.076 48.0784C256.93 50.6333 250.83 53.5148 251.209 56.3253C251.573 58.9439 257.647 60.6279 259.972 62.1307C266.069 66.0542 266.85 74.8959 266.573 80.5529C266.186 88.4086 264.9 96.0426 257.246 101.57C255.209 103.028 254.115 102.98 254.226 105.346C254.308 107.03 254.742 108.581 255.866 109.995C256.963 111.387 259.471 112.268 260.357 113.621C261.986 116.158 258.92 115.775 256.939 115.654C250.42 115.235 241.968 114.31 235.367 115.791L235.538 117.943L250.408 117.688C250.408 117.688 254.157 117.528 257.538 118.29C262.266 119.354 263.932 122.039 264.774 121.856C266.839 121.4 265.812 112.733 262.991 109.232C261.466 107.334 259.601 105.739 257.867 104.484C259.82 103.603 261.959 102.442 264.01 100.834C271.296 95.2474 270.538 82.4589 270.391 80.6051C270.334 79.2407 269.121 65.9467 260.75 60.4983Z" fill="black"/>
<path d="M224.098 89.112L223.412 79.1341C223.277 77.1617 223.171 76.3503 222.818 75.5429C222.212 73.9652 220.402 72.9488 218.267 72.983C215.734 73.0234 213.631 74.2572 212.961 76.0876C212.581 77.0616 212.485 77.8375 212.589 79.3458L213.271 89.285L211.037 89.3207L210.349 79.3041C210.226 77.5251 210.003 76.4446 209.704 75.7138C208.994 74.0603 207.391 73.1568 205.206 73.1917C202.822 73.2298 200.719 74.4636 200 76.2948C199.619 77.2688 199.518 77.9673 199.611 79.3209L200.31 89.4921L198.025 89.5287L196.83 72.1253L199.114 72.0888L199.287 74.6026C200.589 72.5686 202.556 71.5305 205.387 71.4853C208.317 71.4384 210.325 72.4517 211.718 74.6363C213.255 72.4049 215.369 71.3257 218.299 71.2789C221.378 71.2297 223.797 72.43 224.785 74.5049C225.306 75.5806 225.456 76.3138 225.621 78.7116L226.327 88.9989L224.092 89.0346L224.098 89.112Z" fill="white"/>
<path d="M72.4739 92.9408L61.5749 83.7102L56.4371 87.9934L56.7923 93.1911L54.6718 93.225L53.4487 75.3218L55.5691 75.288L56.2793 85.6834L69.6234 75.0637L72.5329 75.0172L63.0687 82.453L74.9888 92.9007L72.4739 92.9408Z" fill="white"/>
<path d="M86.9292 92.8961C80.0503 93.0061 74.188 89.1609 73.812 83.6833C73.4467 78.3599 78.7662 74.2972 85.4967 74.1896C92.3261 74.0804 98.2352 77.8862 98.6112 83.3638C98.9792 88.7258 93.7091 92.7876 86.9292 92.8961ZM85.7068 75.8082C80.1641 75.8968 75.5313 79.1375 75.8384 83.6122C76.1508 88.1641 80.9262 91.3316 86.6669 91.2397C92.3086 91.1495 96.7461 87.9505 96.4363 83.4372C96.2282 78.961 91.398 75.7171 85.7068 75.8082Z" fill="white"/>
<path d="M101.272 92.0542L98.1575 92.1041L114.687 75.5151L99.56 75.7572L101.179 74.1104L116.257 73.8691L119.519 73.8169L102.834 90.2926L119.444 90.0268L117.882 91.7885L101.272 92.0542Z" fill="white"/>
<path d="M132.635 91.7184C125.755 91.8285 119.893 87.9831 119.52 82.5439C119.151 77.1818 124.474 73.1576 131.205 73.05C138.034 72.9407 143.944 76.7467 144.32 82.2245C144.685 87.548 139.415 91.61 132.635 91.7184ZM131.412 74.63C125.869 74.7187 121.236 77.9595 121.543 82.4343C121.856 86.9863 126.631 90.1538 132.372 90.062C138.014 89.9718 142.452 86.7727 142.142 82.2593C141.885 77.7837 137.104 74.539 131.412 74.63Z" fill="white"/>
<path d="M181.42 71.7153C174.619 71.8241 169.243 75.9362 169.612 81.3243C169.614 81.3634 169.617 81.4024 169.62 81.4414C169.933 86.0097 165.448 89.2475 159.747 89.3387C153.895 89.4324 149.119 86.2254 148.804 81.6182C148.493 77.089 153.125 73.8097 158.777 73.7193C162.728 73.6561 166.238 75.2025 168.157 77.6343C168.362 76.9665 168.619 76.337 168.977 75.7059C166.516 73.4 162.716 72.0146 158.515 72.0818C151.713 72.1906 146.337 76.3027 146.706 81.6908C147.086 87.2352 153.007 91.0882 159.959 90.977C165.06 90.8954 169.312 88.6385 170.979 85.2112C173.163 88.5768 177.763 90.6921 182.915 90.6097C189.767 90.5001 195.095 86.4279 194.721 80.9616C194.294 75.4571 188.372 71.6041 181.42 71.7153ZM182.652 88.9722C176.801 89.0658 172.025 85.8589 171.71 81.2517C171.399 76.7225 176.031 73.4432 181.683 73.3528C187.434 73.2607 192.265 76.545 192.576 81.0741C192.889 85.6424 188.404 88.8802 182.652 88.9722Z" fill="#2D2D2D"/>
</svg>
