<svg width="537" height="206" viewBox="0 0 537 206" fill="none" xmlns="http://www.w3.org/2000/svg">
<g filter="url(#filter0_d_2820_330)">
<path d="M114.042 122.44L112.346 131.132V134.312L113.618 140.884V148.304C113.618 148.728 113.335 149.152 112.77 149.576C112.346 149.859 111.851 150.071 111.286 150.212C110.721 150.495 110.155 150.707 109.59 150.848C109.025 150.989 108.671 151.131 108.53 151.272C108.106 151.413 107.541 151.767 106.834 152.332C106.269 153.039 105.703 153.392 105.138 153.392H97.2939C96.7286 153.392 95.7393 153.18 94.3259 152.756C93.0539 152.332 92.1353 152.12 91.5699 152.12C91.1459 152.12 90.4393 152.261 89.4499 152.544C88.6019 152.827 87.9659 152.968 87.5419 152.968H82.6659L81.1819 156.996V165.264C81.1819 165.688 81.3233 165.829 81.6059 165.688C81.8886 165.547 82.0299 165.759 82.0299 166.324V177.136C82.0299 177.56 82.5246 178.125 83.5139 178.832V181.8C82.6659 182.648 81.6766 183.072 80.5459 183.072C79.8393 183.072 79.2739 182.86 78.8499 182.436C78.4259 182.153 78.0019 181.729 77.5779 181.164C77.2953 180.74 76.9419 180.175 76.5179 179.468C76.0939 178.761 75.5993 178.125 75.0339 177.56V173.108L76.5179 168.868L75.4579 162.72L75.8819 153.18C75.0339 152.756 74.3979 152.544 73.9739 152.544C73.5499 152.544 72.4193 153.18 70.5819 154.452C68.7446 155.865 67.2606 156.925 66.1299 157.632C65.7059 157.915 65.4233 158.409 65.2819 159.116C65.1406 159.823 64.7873 160.459 64.2219 161.024H62.9499L54.6819 159.116C52.8446 159.257 51.6433 159.752 51.0779 160.6C50.5126 161.589 50.3006 162.437 50.4419 163.144L50.0179 169.08C49.0286 169.787 48.1099 169.645 47.2619 168.656L46.8379 160.6C46.4139 157.773 45.7779 155.724 44.9299 154.452C44.0819 153.18 42.6686 152.544 40.6899 152.544C38.9939 152.544 37.7219 152.827 36.8739 153.392C36.1673 154.099 35.6019 154.876 35.1779 155.724C34.7539 156.572 34.3299 157.42 33.9059 158.268C33.4819 159.257 32.7753 160.035 31.7859 160.6C31.5033 160.741 31.0793 160.812 30.5139 160.812C30.0899 160.812 29.7366 160.953 29.4539 161.236C28.3233 162.367 27.4753 164.133 26.9099 166.536C26.4859 168.939 26.2033 170.776 26.0619 172.048L25.2139 181.8L26.9099 190.492C27.0513 190.916 26.9099 191.905 26.4859 193.46C26.0619 195.015 25.2846 195.792 24.1539 195.792C22.5993 195.792 21.5393 195.015 20.9739 193.46C20.5499 191.905 20.3379 190.775 20.3379 190.068L21.3979 175.44C21.6806 174.733 21.8219 173.885 21.8219 172.896C21.8219 172.048 21.7513 171.271 21.6099 170.564C21.4686 170.281 21.3273 170.069 21.1859 169.928C21.0446 169.787 20.9739 169.433 20.9739 168.868V161.66C20.9739 160.388 20.3379 159.187 19.0659 158.056C17.9353 157.067 16.5926 156.148 15.0379 155.3C13.6246 154.593 12.2113 153.957 10.7979 153.392C9.52592 152.968 8.74859 152.685 8.46592 152.544C8.18326 152.403 7.97126 152.12 7.82992 151.696C7.68859 151.413 7.47659 151.131 7.19392 150.848C6.91126 150.565 6.48726 150.353 5.92192 150.212C5.35659 150.071 4.72059 149.647 4.01392 148.94V18.56L5.28592 10.928V4.77999C5.28592 4.35599 5.70992 3.93199 6.55792 3.50799C7.40592 2.94266 7.97126 2.65999 8.25392 2.65999L37.0859 3.084C37.6513 3.36666 38.2166 3.64933 38.7819 3.932C39.4886 4.07333 39.9833 4.42666 40.2659 4.992V60.324C40.2659 60.8893 40.4073 61.6667 40.6899 62.656C40.9726 63.6453 40.9726 64.6347 40.6899 65.624L39.2059 76.436L39.8419 105.268L40.6899 113.112C40.9726 114.384 41.7499 116.151 43.0219 118.412C47.2619 118.412 51.0073 118.483 54.2579 118.624C57.5086 118.624 61.3953 118.624 65.9179 118.624C70.4406 118.624 76.0939 118.624 82.8779 118.624C89.8033 118.483 98.9193 118.271 110.226 117.988C111.922 117.847 112.911 118.483 113.194 119.896C113.618 121.168 113.901 122.016 114.042 122.44ZM277.163 81.948C277.163 86.0467 276.951 89.6507 276.527 92.76C276.103 95.8693 275.396 98.908 274.407 101.876C273.417 104.844 272.216 107.883 270.803 110.992C269.389 114.101 267.623 117.776 265.503 122.016C265.22 122.44 264.655 123.217 263.807 124.348C262.959 125.479 261.969 126.751 260.839 128.164C259.708 129.436 258.507 130.849 257.235 132.404C256.104 133.817 255.044 135.089 254.055 136.22C253.348 136.927 252.641 137.987 251.935 139.4C251.228 140.672 250.521 141.661 249.815 142.368C248.967 143.357 247.836 144.276 246.423 145.124C245.151 145.972 244.02 146.82 243.031 147.668C241.9 148.375 240.84 149.293 239.851 150.424C238.861 151.696 237.801 152.756 236.671 153.604C236.247 153.887 235.54 154.169 234.551 154.452C233.561 154.735 232.784 155.229 232.219 155.936C231.088 157.491 230.311 159.328 229.887 161.448C229.604 163.709 229.463 165.688 229.463 167.384L230.947 182.436C230.947 183.567 230.735 185.051 230.311 186.888C229.887 188.867 228.897 189.856 227.343 189.856C225.788 189.856 224.657 189.079 223.951 187.524C223.244 185.969 222.891 184.627 222.891 183.496C222.891 181.8 223.385 179.256 224.375 175.864C225.364 172.472 225.859 168.303 225.859 163.356C225.859 161.095 225.717 159.399 225.435 158.268C225.152 157.279 224.657 156.572 223.951 156.148C223.385 155.724 222.537 155.512 221.407 155.512C220.276 155.653 218.863 155.724 217.167 155.724C216.036 155.724 215.188 156.007 214.623 156.572C214.057 157.137 213.351 158.197 212.503 159.752C212.22 160.459 211.443 161.024 210.171 161.448C209.04 161.872 208.121 162.649 207.415 163.78C206.708 165.052 206.284 166.253 206.143 167.384C206.143 168.515 206.143 169.575 206.143 170.564C206.143 171.553 206.001 172.543 205.719 173.532C205.577 174.521 205.012 175.511 204.023 176.5C203.74 176.641 203.245 176.641 202.539 176.5C201.832 176.359 201.267 176.076 200.843 175.652C199.288 174.239 198.299 172.26 197.875 169.716C197.451 167.313 196.885 165.193 196.179 163.356C195.755 161.66 194.483 160.105 192.363 158.692C190.384 157.42 188.759 156.784 187.487 156.784C186.497 156.784 185.225 157.208 183.671 158.056C182.257 158.904 181.197 160.247 180.491 162.084C180.208 162.932 180.067 163.921 180.067 165.052C180.067 166.324 180.067 167.172 180.067 167.596L181.551 187.524C181.551 189.503 181.268 191.34 180.703 193.036C180.279 194.732 178.865 195.58 176.463 195.58C175.191 195.58 174.201 195.227 173.495 194.52C172.929 193.955 172.505 193.248 172.223 192.4C172.081 191.552 172.011 190.704 172.011 189.856C172.011 189.008 172.011 188.301 172.011 187.736L174.343 164.416C174.343 163.851 174.201 162.861 173.919 161.448C173.636 160.035 173.212 158.621 172.647 157.208C172.081 155.936 171.304 154.735 170.315 153.604C169.467 152.615 168.407 152.12 167.135 152.12C166.004 152.12 164.661 152.685 163.107 153.816C161.552 155.088 160.633 156.431 160.351 157.844C160.068 159.116 159.856 160.529 159.715 162.084C159.573 163.639 159.149 165.052 158.443 166.324C158.301 166.748 157.877 167.031 157.171 167.172C156.605 167.455 156.111 167.596 155.687 167.596C154.98 167.596 154.273 167.525 153.567 167.384C152.86 167.243 152.365 166.607 152.083 165.476C151.8 162.649 151.588 159.681 151.447 156.572C151.305 153.604 151.093 150.636 150.811 147.668C150.528 145.407 149.397 143.64 147.419 142.368C145.44 141.096 143.673 140.036 142.119 139.188C140.847 138.481 139.575 137.351 138.303 135.796C137.172 134.1 136.041 132.687 134.911 131.556C133.356 129.719 131.66 127.952 129.823 126.256C128.127 124.419 126.784 122.511 125.795 120.532C124.664 118.412 123.463 115.939 122.191 113.112C121.06 110.285 119.929 107.6 118.799 105.056C117.809 102.371 116.961 100.039 116.255 98.06C115.548 96.0813 115.195 94.9507 115.195 94.668V66.472C115.195 66.048 115.548 64.7053 116.255 62.444C117.103 60.0413 117.739 58.204 118.163 56.932C120.141 51.2787 122.191 46.4027 124.311 42.304C126.431 38.2053 129.257 33.8947 132.791 29.372C136.183 24.9907 140.14 21.104 144.663 17.712C149.327 14.32 153.143 11.776 156.111 10.08C158.089 8.94933 160.563 7.88933 163.531 6.9C166.64 5.91066 169.467 5.06266 172.011 4.35599C175.685 3.22532 179.501 2.37732 183.459 1.81199C187.557 1.24666 191.656 0.963998 195.755 0.963998C200.984 0.963998 206.567 1.52933 212.503 2.65999C218.439 3.79066 224.304 5.62799 230.099 8.17199C236.035 10.716 241.829 14.1787 247.483 18.56C253.136 22.8 258.365 28.1 263.171 34.46C265.291 37.2867 266.916 40.184 268.047 43.152C269.177 46.12 270.308 48.9467 271.439 51.632C272.145 53.1867 272.993 55.3773 273.983 58.204C275.113 60.8893 275.891 63.504 276.315 66.048C276.456 67.32 276.597 68.804 276.739 70.5C276.88 72.196 276.951 73.892 276.951 75.588C277.092 77.1427 277.163 78.556 277.163 79.828C277.163 80.9587 277.163 81.6653 277.163 81.948ZM238.791 59.052C238.225 57.2147 237.448 55.0947 236.459 52.692C235.611 50.2893 234.48 47.816 233.067 45.272C231.653 42.728 230.028 40.2547 228.191 37.852C226.353 35.308 224.163 33.0467 221.619 31.068C221.336 30.9267 220.983 30.7853 220.559 30.644C220.276 30.5027 219.993 30.432 219.711 30.432C218.863 32.4107 217.873 34.5307 216.743 36.792C215.753 39.0533 214.693 41.456 213.563 44C212.432 46.4027 211.301 48.876 210.171 51.42C209.181 53.964 208.333 56.3667 207.627 58.628C207.203 58.9107 206.991 59.476 206.991 60.324V61.808H225.223C225.505 61.808 226.141 61.7373 227.131 61.596C228.261 61.4547 229.533 61.2427 230.947 60.96C232.36 60.6773 233.773 60.3947 235.187 60.112C236.6 59.688 237.801 59.3347 238.791 59.052ZM205.295 87.884C204.729 86.3293 204.023 84.6333 203.175 82.796C202.327 80.9587 201.408 79.192 200.419 77.496C199.429 75.8 198.44 74.1747 197.451 72.62C196.603 71.0653 195.896 69.864 195.331 69.016C194.059 72.1253 192.575 75.3053 190.879 78.556C189.324 81.6653 187.699 84.916 186.003 88.308L205.295 87.884ZM182.823 62.868C182.116 61.0307 181.056 58.84 179.643 56.296C178.371 53.6107 176.957 50.9253 175.403 48.24C173.989 45.5547 172.505 43.0813 170.951 40.82C169.537 38.5587 168.265 36.792 167.135 35.52C165.58 36.5093 163.813 38.276 161.835 40.82C159.997 43.364 158.231 46.1907 156.535 49.3C154.839 52.268 153.425 55.236 152.295 58.204C151.164 61.172 150.599 63.504 150.599 65.2C150.599 65.624 150.669 65.9067 150.811 66.048C150.811 66.1893 150.881 66.26 151.023 66.26L164.803 66.684C166.357 66.684 168.053 66.6133 169.891 66.472C171.728 66.1893 173.495 65.9067 175.191 65.624C177.028 65.3413 178.583 64.988 179.855 64.564C181.268 63.9987 182.257 63.4333 182.823 62.868ZM255.115 83.22C255.115 79.9693 254.761 76.648 254.055 73.256C253.489 69.7227 252.995 66.8253 252.571 64.564C252.147 69.0867 250.097 74.104 246.423 79.616C242.748 85.128 238.225 89.8627 232.855 93.82V95.092C232.855 96.6467 233.067 97.9187 233.491 98.908C234.056 99.8973 234.268 100.816 234.127 101.664C234.127 102.512 233.561 103.36 232.431 104.208C231.441 105.056 229.463 106.116 226.495 107.388L225.859 106.752L224.587 96.576C223.456 97 221.76 97.4947 219.499 98.06C217.379 98.6253 215.047 99.1907 212.503 99.756C210.1 100.18 207.768 100.533 205.507 100.816C203.387 101.099 201.691 101.24 200.419 101.24H190.879V110.144H186.851C185.72 110.144 184.236 110.144 182.399 110.144C180.703 110.144 179.431 109.791 178.583 109.084C178.724 107.671 178.795 106.328 178.795 105.056C178.936 103.643 179.077 102.371 179.219 101.24C175.544 101.24 172.223 101.099 169.255 100.816C166.287 100.392 162.965 99.2613 159.291 97.424C158.584 98.1307 157.807 99.0493 156.959 100.18C156.111 101.311 155.475 101.876 155.051 101.876C154.627 101.876 153.637 101.523 152.083 100.816C150.669 100.109 149.609 99.4027 148.903 98.696L153.567 93.608C151.729 92.76 149.751 91.488 147.631 89.792C145.652 88.096 143.744 86.188 141.907 84.068C140.069 81.948 138.515 79.828 137.243 77.708C135.971 75.588 135.264 73.68 135.123 71.984C134.84 72.9733 134.628 74.1747 134.487 75.588C134.345 77.0013 134.275 77.9907 134.275 78.556C134.275 82.6547 134.911 87.1067 136.183 91.912C137.596 96.7173 139.08 100.463 140.635 103.148C141.907 105.409 143.532 107.671 145.511 109.932C147.489 112.052 149.68 114.101 152.083 116.08C154.485 118.059 156.888 119.825 159.291 121.38C161.835 122.935 164.167 124.207 166.287 125.196C167.135 123.924 167.771 122.581 168.195 121.168C168.619 119.755 169.396 118.553 170.527 117.564C172.788 118.553 175.049 119.684 177.311 120.956C177.311 122.087 177.24 123.359 177.099 124.772C177.099 126.044 177.169 127.245 177.311 128.376H206.567V125.408C206.567 124.984 206.496 124.489 206.355 123.924C206.213 123.359 206.143 122.723 206.143 122.016C208.263 121.309 210.241 120.673 212.079 120.108C213.916 119.401 215.753 118.907 217.591 118.624C218.297 120.037 219.004 121.521 219.711 123.076C220.417 124.489 221.124 125.903 221.831 127.316H223.103C224.94 126.468 226.919 125.479 229.039 124.348C231.159 123.217 233.208 121.945 235.187 120.532C237.165 119.119 239.003 117.635 240.699 116.08C242.536 114.525 243.949 112.829 244.939 110.992C244.373 110.427 243.737 109.861 243.031 109.296C242.324 108.731 241.829 108.165 241.547 107.6C243.101 105.904 244.091 104.279 244.515 102.724C244.939 101.169 245.928 100.392 247.483 100.392C247.907 100.392 248.543 100.463 249.391 100.604C250.38 100.745 251.228 100.957 251.935 101.24C252.359 100.392 252.783 99.1907 253.207 97.636C253.631 96.0813 253.984 94.456 254.267 92.76C254.549 91.064 254.761 89.368 254.903 87.672C255.044 85.976 255.115 84.492 255.115 83.22ZM402.615 119.684C402.615 119.967 402.474 120.532 402.191 121.38C401.909 122.228 401.697 122.935 401.555 123.5C401.131 125.903 400.213 128.588 398.799 131.556C397.386 134.524 395.831 137.351 394.135 140.036C393.57 140.884 392.651 142.156 391.379 143.852C390.249 145.407 389.047 147.103 387.775 148.94C386.503 150.636 385.373 152.403 384.383 154.24C383.535 156.219 383.041 157.915 382.899 159.328C382.758 159.611 382.475 159.964 382.051 160.388C381.627 160.812 381.274 161.236 380.991 161.66C380.709 162.225 380.426 162.932 380.143 163.78C379.861 164.628 379.719 165.335 379.719 165.9V169.08C379.719 169.363 379.366 170.14 378.659 171.412C377.953 172.825 377.175 173.532 376.327 173.532H373.995C373.713 173.391 373.359 173.108 372.935 172.684C372.511 172.401 372.299 171.977 372.299 171.412V165.688C372.299 165.123 372.017 164.557 371.451 163.992C370.886 163.568 370.321 163.356 369.755 163.356C369.049 163.356 368.413 163.851 367.847 164.84C367.282 165.829 366.717 166.96 366.151 168.232C365.727 169.645 365.374 170.988 365.091 172.26C364.809 173.532 364.597 174.451 364.455 175.016L365.303 187.524C365.303 188.655 365.021 190.068 364.455 191.764C363.89 193.601 362.689 194.52 360.851 194.52C359.862 194.52 359.014 194.167 358.307 193.46C357.177 192.188 356.399 191.128 355.975 190.28C355.693 189.432 355.551 188.655 355.551 187.948C355.693 187.383 355.905 186.817 356.187 186.252C356.47 185.828 356.611 185.333 356.611 184.768V175.44C356.611 174.309 356.329 173.108 355.763 171.836C355.198 170.705 354.421 170.14 353.431 170.14C353.007 170.14 352.583 170.211 352.159 170.352C351.735 170.493 351.17 170.493 350.463 170.352C349.615 170.352 348.909 170.069 348.343 169.504C347.919 169.08 347.495 168.515 347.071 167.808C346.789 167.243 346.435 166.536 346.011 165.688C345.729 164.981 345.234 164.204 344.527 163.356C343.397 163.78 342.266 164.345 341.135 165.052C340.005 165.759 338.803 165.971 337.531 165.688C337.107 166.536 336.895 167.455 336.895 168.444C336.895 169.575 336.33 170.635 335.199 171.624H332.019C331.595 171.341 331.03 170.423 330.323 168.868C329.758 167.455 329.475 166.607 329.475 166.324V163.568C329.193 162.72 328.698 162.296 327.991 162.296C327.285 162.296 326.507 162.155 325.659 161.872L318.027 161.024C317.321 162.013 316.897 162.932 316.755 163.78C316.614 164.769 316.402 165.759 316.119 166.748L318.027 194.308C318.169 194.591 318.098 194.944 317.815 195.368C317.674 195.933 317.462 196.428 317.179 196.852H310.395C310.113 196.428 309.83 195.933 309.547 195.368C309.406 194.803 309.265 194.167 309.123 193.46L310.607 168.656C310.607 167.949 310.183 166.96 309.335 165.688C308.629 164.557 307.71 163.497 306.579 162.508V160.388L304.247 154.876V152.332C304.106 152.191 302.905 151.201 300.643 149.364C298.382 147.385 295.909 145.265 293.223 143.004C290.679 140.743 288.347 138.623 286.227 136.644C284.107 134.524 283.047 133.252 283.047 132.828C283.047 132.404 283.895 131.203 285.591 129.224C287.287 127.104 289.195 124.843 291.315 122.44C293.435 119.896 295.485 117.564 297.463 115.444C299.442 113.183 300.714 111.628 301.279 110.78C303.682 110.921 306.085 111.981 308.487 113.96C310.89 115.797 313.01 117.281 314.847 118.412C318.239 120.532 322.055 122.44 326.295 124.136C330.677 125.832 335.058 126.963 339.439 127.528L353.643 127.952C354.35 127.811 355.198 127.74 356.187 127.74C357.318 127.74 358.237 127.387 358.943 126.68C360.781 125.267 362.194 123.147 363.183 120.32C364.314 117.352 364.879 114.667 364.879 112.264C364.879 110.427 364.526 108.943 363.819 107.812C363.254 106.54 361.77 104.915 359.367 102.936C358.943 102.512 357.742 102.017 355.763 101.452C353.785 100.887 352.159 100.251 350.887 99.544C348.909 98.696 346.789 97.7773 344.527 96.788C342.266 95.6573 340.075 94.668 337.955 93.82C335.694 93.1133 332.867 92.4067 329.475 91.7C326.225 90.852 323.115 89.6507 320.147 88.096C319.865 87.8133 319.441 87.7427 318.875 87.884C318.31 87.884 317.674 87.7427 316.967 87.46C314.989 86.612 312.515 85.4813 309.547 84.068C306.579 82.5133 303.682 80.464 300.855 77.92C299.725 76.7893 298.382 75.2347 296.827 73.256C295.273 71.136 293.93 69.1573 292.799 67.32C291.245 64.9173 289.69 62.3733 288.135 59.688C286.581 57.0027 285.662 54.388 285.379 51.844L286.651 37.216C287.641 33.4 289.266 29.4427 291.527 25.344C293.789 21.2453 296.545 17.3587 299.795 13.684C300.361 12.9773 301.067 12.412 301.915 11.988C302.905 11.564 303.753 10.9987 304.459 10.292C307.286 7.60666 309.689 5.98133 311.667 5.41599C313.787 4.70933 315.837 4.14399 317.815 3.71999C319.229 3.43732 320.571 3.08399 321.843 2.65999C323.257 2.23599 324.67 1.88266 326.083 1.59999C327.073 1.31733 328.133 1.10533 329.263 0.963998C330.394 0.681327 331.454 0.398659 332.443 0.115996L356.823 1.81199C359.933 2.80132 362.901 3.64933 365.727 4.35599C368.554 5.06266 371.31 5.91066 373.995 6.9C376.822 7.88933 379.649 9.09066 382.475 10.504C385.443 11.776 388.553 13.5427 391.803 15.804C392.227 16.0867 392.793 16.44 393.499 16.864C394.206 17.288 394.913 17.7827 395.619 18.348C396.326 18.772 396.962 19.2667 397.527 19.832C398.093 20.256 398.375 20.7507 398.375 21.316C398.375 21.8813 398.093 22.7293 397.527 23.86C396.962 24.8493 396.326 25.9093 395.619 27.04C394.913 28.1707 394.135 29.3013 393.287 30.432C392.581 31.4213 392.015 32.1987 391.591 32.764C389.895 35.308 388.27 37.7107 386.715 39.972C385.302 42.2333 383.889 44.5653 382.475 46.968H380.143C380.143 46.968 378.871 46.2613 376.327 44.848C373.783 43.2933 370.815 41.668 367.423 39.972C364.031 38.1347 360.639 36.5093 357.247 35.096C353.855 33.5413 351.311 32.764 349.615 32.764H335.199C332.514 32.764 330.041 34.1067 327.779 36.792C325.659 39.4773 324.529 42.304 324.387 45.272C324.246 47.2507 324.529 49.0173 325.235 50.572C326.083 51.9853 327.073 53.2573 328.203 54.388C329.475 55.3773 330.747 56.2253 332.019 56.932C333.291 57.6387 334.351 58.204 335.199 58.628C336.189 58.9107 337.249 59.3347 338.379 59.9C339.51 60.324 340.57 60.6773 341.559 60.96C346.93 62.5147 352.583 64.14 358.519 65.836C364.455 67.3907 370.109 69.3693 375.479 71.772C380.991 74.0333 385.867 76.86 390.107 80.252C394.347 83.5027 397.527 87.5307 399.647 92.336C400.071 93.608 400.637 95.304 401.343 97.424C402.191 99.544 402.615 100.887 402.615 101.452V119.684ZM531.743 7.53599L527.079 32.34H454.363V59.476C455.211 60.324 456.483 60.8893 458.179 61.172C459.875 61.3133 462.207 61.3133 465.175 61.172C468.285 61.0307 472.101 60.8893 476.623 60.748C481.146 60.4653 486.729 60.324 493.371 60.324C493.937 60.324 494.997 60.324 496.551 60.324C498.247 60.1827 500.085 60.112 502.063 60.112C504.183 59.9707 506.303 59.8293 508.423 59.688C510.685 59.5467 512.663 59.4053 514.359 59.264C515.349 59.264 515.985 59.688 516.267 60.536C516.55 61.2427 516.691 61.7373 516.691 62.02C516.691 62.3027 516.55 63.2213 516.267 64.776C515.985 66.1893 515.702 67.8853 515.419 69.864C515.137 71.8427 514.783 73.9627 514.359 76.224C513.935 78.344 513.653 80.1107 513.511 81.524C513.37 81.8067 513.299 82.4427 513.299 83.432C513.299 84.4213 513.299 87.1773 513.299 91.7H454.363L452.667 103.572V120.32L478.107 121.804L505.031 122.228L527.715 121.38C528.139 121.38 528.563 121.451 528.987 121.592C529.553 121.733 530.118 121.804 530.683 121.804L531.319 121.38V126.68L528.351 140.884V148.94C528.351 149.364 527.998 150.141 527.291 151.272C526.585 152.403 526.09 153.321 525.807 154.028C524.677 154.311 523.546 154.593 522.415 154.876C521.285 155.159 520.154 155.441 519.023 155.724L514.571 154.452C514.43 154.452 513.865 154.805 512.875 155.512C513.158 166.677 513.582 175.087 514.147 180.74C514.854 186.535 515.207 190.421 515.207 192.4C515.207 193.389 514.925 194.449 514.359 195.58C513.935 196.711 513.158 197.276 512.027 197.276C511.603 197.276 510.755 196.781 509.483 195.792C508.353 194.944 507.929 193.955 508.211 192.824L507.999 159.328C507.434 157.208 506.515 155.724 505.243 154.876C504.113 154.169 502.982 153.816 501.851 153.816C499.873 153.816 498.106 154.381 496.551 155.512C495.138 156.784 494.431 158.409 494.431 160.388V163.568C494.431 165.123 493.866 166.324 492.735 167.172C491.605 168.02 490.615 168.444 489.767 168.444C489.061 168.444 488.142 167.879 487.011 166.748V161.024C487.011 160.459 486.729 159.893 486.163 159.328C485.598 158.763 485.103 158.48 484.679 158.48C484.255 158.48 483.761 158.692 483.195 159.116C482.771 159.681 482.418 160.176 482.135 160.6C481.429 162.296 480.793 163.992 480.227 165.688C479.803 167.384 479.379 169.151 478.955 170.988L479.803 177.772V186.04C479.803 186.181 479.238 186.676 478.107 187.524C477.118 188.372 476.341 188.796 475.775 188.796C475.069 188.796 474.433 188.584 473.867 188.16C473.302 187.736 472.807 187.241 472.383 186.676C471.959 186.111 471.606 185.545 471.323 184.98C471.041 184.415 470.899 183.991 470.899 183.708L471.747 178.196V170.564C471.747 169.716 471.465 168.515 470.899 166.96C470.334 165.547 469.486 164.84 468.355 164.84C467.931 164.84 467.507 164.911 467.083 165.052C466.801 165.335 466.306 165.405 465.599 165.264C464.186 165.123 463.055 164.204 462.207 162.508C461.501 160.812 460.723 159.469 459.875 158.48C459.31 157.915 458.745 157.561 458.179 157.42C457.614 157.279 457.119 157.208 456.695 157.208C454.01 157.208 452.597 159.187 452.455 163.144C452.314 164.275 451.89 165.193 451.183 165.9C450.477 166.607 449.911 166.96 449.487 166.96H448.215C447.65 166.96 447.155 166.607 446.731 165.9C446.449 165.335 446.166 164.699 445.883 163.992C445.601 163.285 445.389 162.579 445.247 161.872C445.106 161.165 445.035 160.741 445.035 160.6C444.611 155.229 442.35 152.544 438.251 152.544C436.273 152.544 434.718 153.463 433.587 155.3C432.457 157.279 431.891 159.257 431.891 161.236C431.891 164.769 431.962 167.667 432.103 169.928C432.386 172.189 432.669 174.168 432.951 175.864C433.234 177.56 433.446 179.115 433.587 180.528C433.87 182.083 434.011 183.92 434.011 186.04C434.011 186.181 433.941 186.605 433.799 187.312C433.799 188.019 433.658 188.725 433.375 189.432C433.234 190.28 432.951 190.987 432.527 191.552C432.103 192.259 431.609 192.612 431.043 192.612H428.287C427.439 192.612 426.662 191.976 425.955 190.704C425.249 189.573 424.966 188.725 425.107 188.16L426.591 165.9C426.591 165.476 426.45 164.628 426.167 163.356C426.026 162.225 425.743 161.307 425.319 160.6C425.037 160.176 424.683 159.752 424.259 159.328C423.835 158.904 423.482 158.551 423.199 158.268C423.199 157.985 423.129 157.632 422.987 157.208C422.846 156.925 422.775 156.643 422.775 156.36C422.493 153.957 421.786 152.615 420.655 152.332C419.666 152.049 418.818 151.625 418.111 151.06L416.627 132.828L416.203 52.48L417.051 48.24L417.263 24.072L418.111 19.832V9.02L417.263 4.77999C417.687 3.08399 418.323 2.09466 419.171 1.81199C420.019 1.52932 420.938 1.38799 421.927 1.38799C422.493 1.38799 423.341 1.52932 424.471 1.81199C425.037 1.81199 425.814 1.88266 426.803 2.024C427.934 2.024 430.478 2.09466 434.435 2.23599C438.393 2.23599 444.399 2.23599 452.455 2.23599C460.511 2.23599 471.889 2.23599 486.587 2.23599L528.563 1.81199C529.411 1.67066 530.259 2.37733 531.107 3.932C531.955 5.34533 532.167 6.54666 531.743 7.53599Z" fill="#FF6700"/>
</g>
<defs>
<filter id="filter0_d_2820_330" x="0.013916" y="0.115967" width="536.365" height="205.16" filterUnits="userSpaceOnUse" color-interpolation-filters="sRGB">
<feFlood flood-opacity="0" result="BackgroundImageFix"/>
<feColorMatrix in="SourceAlpha" type="matrix" values="0 0 0 0 0 0 0 0 0 0 0 0 0 0 0 0 0 0 127 0" result="hardAlpha"/>
<feOffset dy="4"/>
<feGaussianBlur stdDeviation="2"/>
<feComposite in2="hardAlpha" operator="out"/>
<feColorMatrix type="matrix" values="0 0 0 0 0 0 0 0 0 0 0 0 0 0 0 0 0 0 0.25 0"/>
<feBlend mode="normal" in2="BackgroundImageFix" result="effect1_dropShadow_2820_330"/>
<feBlend mode="normal" in="SourceGraphic" in2="effect1_dropShadow_2820_330" result="shape"/>
</filter>
</defs>
</svg>
