<svg xmlns="http://www.w3.org/2000/svg" viewBox="0 0 124.62 86.71"><defs><style>.cls-1{fill:#d90000;}.cls-2{fill:#920000;}</style></defs><g id="Layer_2" data-name="Layer 2"><g id="Layer_1-2" data-name="Layer 1"><path class="cls-1" d="M62.21,8.55q0,7.88-2.82,22.36-1.65,8.55-5.64,24.89L50.06,71.11a7.5,7.5,0,0,0-.1,1.4,7.35,7.35,0,0,0,.49,2.63,8.32,8.32,0,0,0,.49,1.17,3,3,0,0,1-.39,1.31,8.12,8.12,0,0,0-.49,1,3.08,3.08,0,0,0-.1.87c0,.07.17,1,.49,2.92A14.34,14.34,0,0,1,50.64,85l-.68.39a1.78,1.78,0,0,1-1.43-.83,2.88,2.88,0,0,1-.61-1.7,9,9,0,0,1,1-1.75,2.88,2.88,0,0,0,.49-1.56,3.17,3.17,0,0,0-1.46-2.62,16.15,16.15,0,0,0-3.3-1.56q0,2.73-.25,6.13a15.11,15.11,0,0,1-.63,4.18h-1q-.68-1-.78-5.69a78.75,78.75,0,0,0-.78-9.57,30.19,30.19,0,0,0-1.45-5.06c-.46-1.16-.91-2.33-1.36-3.5q-1.27-4.27-2-6.8Q31.88,40.33,30.91,38.1c-.45.46-1.33,2.73-2.62,6.81A42.25,42.25,0,0,0,26,57.16a6.9,6.9,0,0,0,.61,2.28c.4,1,.89,2.12,1.45,3.35a12.66,12.66,0,0,1,.28,2.82,37.93,37.93,0,0,1-.4,5c-.27,1.91-.49,3.68-.67,5.3.19,1.16.42,2.39.68,3.69a18.85,18.85,0,0,1,.39,3.69v2.63l-1.07.19c-1-.65-1.69-1.16-2.2-1.55a8.48,8.48,0,0,1-2.95-3.79v-3.7h1.45l1.27,2.14a8.2,8.2,0,0,0,.92-3.06A33.8,33.8,0,0,0,26,71.93l-.58-1.17a3.9,3.9,0,0,0-1,2.63,20.83,20.83,0,0,1-.2,2.24h-1q-1.15-5.25-4.61-7.2t-3.7-2.57a4.91,4.91,0,0,1-.24-1.7c0-.65,0-1.28,0-1.9a15.49,15.49,0,0,0-.44-2.58c-.19-.45-.94-3-2.23-7.68S9.78,43.89,9.33,41.65s-1.42-6-2.91-11.18S3.48,20.07,2.09,14.92,0,6.67,0,5.64A2.07,2.07,0,0,1,.83,4.13a2.42,2.42,0,0,1,1.5-.73q3.89,0,6.41,6.52l2.91,7.77q1.56,3.6,3.15,8.07a54.59,54.59,0,0,1,2.29,8.07l.68.58a64.71,64.71,0,0,0,2.52-7.87q1.37-4.86,2.92-8.85Q23.8,16.33,26.32,7q1.17-4.38,3.51-4.38Q32,2.62,35.27,10a55,55,0,0,1,3.89,11.37q.39,1.95,2.92,11.18.78,3,2.53,8.95c.26-.59,1-3.41,2.24-8.46q0-.09,3.5-13c.9-3.36,1.62-6.09,2.14-8.16.84-3.44,1.34-5.7,1.5-6.81s.34-2.26.54-3.49A2.37,2.37,0,0,1,56.86,0q3.31,0,4.57,2.33a10.14,10.14,0,0,1,.78,4.57Z"/><path class="cls-1" d="M79.42,66.1a8.43,8.43,0,0,1-.64,3.45A2.29,2.29,0,0,1,76.5,71c-2.33,0-4.67-1.46-7-4.38q-4.38-5.43-4.37-13.7c0-1.75,0-3.35.09-4.81s.2-3.23.39-5.3l1.46-22A73.27,73.27,0,0,1,68.33,6.22c.85-4.08,2-6.12,3.41-6.12q1.85,0,4.47,6.07a29.07,29.07,0,0,1,2.62,11.52q0,11,.1,17.6t.29,16.08Q79.41,60.85,79.42,66.1Z"/><path class="cls-2" d="M78.83,85.35a2.82,2.82,0,0,1-1.94,1,1.46,1.46,0,0,1-1.65-1.65,6.78,6.78,0,0,1,.58-2.43c.13-.33.32-.75.58-1.27a10.09,10.09,0,0,1-.87-.78,3.2,3.2,0,0,1-.68-2.33,9.26,9.26,0,0,1,.53-2.57c.36-1.14.76-1.71,1.22-1.71a1.25,1.25,0,0,1,1.16.78,4.1,4.1,0,0,1,.39,1.85,10.4,10.4,0,0,1-.58,4.08,2.5,2.5,0,0,1-.68.78l.58,1.46C78,83.69,78.44,84.63,78.83,85.35Z"/><path class="cls-1" d="M124.62,68.51a14.28,14.28,0,0,1-1,5.94,9.72,9.72,0,0,0-1,4.18,12.21,12.21,0,0,1,.29,1.56q.58,3.41.88,6.52h-1.5a6.6,6.6,0,0,1-.8-1.77,7.68,7.68,0,0,1-.23-1.88q0-.69.15-2.16c.09-1,.14-1.71.14-2.16q0-3.6-6-10.7a42.65,42.65,0,0,1-6.37-9.81q-1.08-2.43-2.94-5.93-1.28-2.43-2.5-4.82c-.82-1.58-1.68-3.48-2.59-5.68a21.13,21.13,0,0,0-2.65-5.06l-.39.59c.43,2.13.72,3.92.86,5.34a88.78,88.78,0,0,1,1,12.25L98.18,79.13a4.81,4.81,0,0,0,.29,1.74A11.22,11.22,0,0,0,100,83.3v.88l-1,.58a2,2,0,0,1-1.89-1.6,12.1,12.1,0,0,1-.54-3.84c0-1.56,0-2.53,0-2.92a2.6,2.6,0,0,1,.24-1,8.72,8.72,0,0,0-1-3.79,2.78,2.78,0,0,0-2.48-1.07,11.74,11.74,0,0,0-2.82.39q-2.13-3.3-3.11-5.06a12.26,12.26,0,0,1-1.94-6.12q0-5.73.15-13t.14-8.21a35.47,35.47,0,0,0,.63-4.37c.16-1.75.25-3.54.25-5.35V21.09l1-8a7,7,0,0,0-1-3.43C86.06,8.54,85.38,8,84.67,8a1.4,1.4,0,0,0-1,.49,5.17,5.17,0,0,1-1.55-3.17c.19-.59.32-1,.38-1.28.39-.92.71-1.39,1-1.39a1.8,1.8,0,0,1,1,.41A18.36,18.36,0,0,0,88.22,5a8.55,8.55,0,0,0,.72-2.15c.23-1,.7-1.45,1.4-1.45q2.13,0,3.67,3.5,1.06,4.08,2.22,8.07a42.33,42.33,0,0,0,2.42,3.69,25.79,25.79,0,0,1,2.12,3.6c.32.58,1.58,3.21,3.76,7.87q4.83,10.31,5.8,11.76V23.23a59.92,59.92,0,0,1,1.08-9.14q1.49-8.64,3.46-8.65,3.54,0,6.21,22.1.8,6.51,1.87,15.18c.4,3.05.6,5,.6,5.84a5.94,5.94,0,0,1-.3,1.94Z"/><polygon class="cls-2" points="84.57 13.8 83.98 14.1 83.4 13.22 83.4 10.79 84.28 10.79 84.57 13.8"/><path class="cls-2" d="M92.73,79.42H91.18V73.29a4.78,4.78,0,0,1,1.12,2,12.11,12.11,0,0,0,.43,1.7Z"/><path class="cls-2" d="M93,83.6l-.29.58h-1l.29-2.72A6.3,6.3,0,0,1,93,83.6Z"/></g></g></svg>